<?xml version="1.0" encoding="utf-8" standalone="no"?>
<!DOCTYPE svg PUBLIC "-//W3C//DTD SVG 1.1//EN"
  "http://www.w3.org/Graphics/SVG/1.1/DTD/svg11.dtd">
<svg xmlns:xlink="http://www.w3.org/1999/xlink" width="460.8pt" height="345.6pt" viewBox="0 0 460.8 345.6" xmlns="http://www.w3.org/2000/svg" version="1.1">
 <metadata>
  <rdf:RDF xmlns:dc="http://purl.org/dc/elements/1.1/" xmlns:cc="http://creativecommons.org/ns#" xmlns:rdf="http://www.w3.org/1999/02/22-rdf-syntax-ns#">
   <cc:Work>
    <dc:type rdf:resource="http://purl.org/dc/dcmitype/StillImage"/>
    <dc:date>2026-08-18T14:11:14.842853</dc:date>
    <dc:format>image/svg+xml</dc:format>
    <dc:creator>
     <cc:Agent>
      <dc:title>Matplotlib v3.10.8, https://matplotlib.org/</dc:title>
     </cc:Agent>
    </dc:creator>
   </cc:Work>
  </rdf:RDF>
 </metadata>
 <defs>
  <style type="text/css">*{stroke-linejoin: round; stroke-linecap: butt}</style>
 </defs>
 <g id="figure_1">
  <g id="patch_1">
   <path d="M 0 345.6 
L 460.8 345.6 
L 460.8 0 
L 0 0 
z
" style="fill: #ffffff"/>
  </g>
  <g id="axes_1">
   <g id="patch_2">
    <path d="M 57.6 307.584 
L 414.72 307.584 
L 414.72 41.472 
L 57.6 41.472 
z
" style="fill: #ffffff"/>
   </g>
   <g id="matplotlib.axis_1">
    <g id="xtick_1">
     <g id="line2d_1">
      <defs>
       <path id="md1b5442fa7" d="M 0 0 
L 0 3.5 
" style="stroke: #000000; stroke-width: 0.8"/>
      </defs>
      <g>
       <use xlink:href="#md1b5442fa7" x="362.695736" y="307.584" style="stroke: #000000; stroke-width: 0.8"/>
      </g>
     </g>
     <g id="text_1">
      <!-- 260 -->
      <g transform="translate(353.151986 322.182437) scale(0.1 -0.1)">
       <defs>
        <path id="DejaVuSans-32" d="M 1228 531 
L 3431 531 
L 3431 0 
L 469 0 
L 469 531 
Q 828 903 1448 1529 
Q 2069 2156 2228 2338 
Q 2531 2678 2651 2914 
Q 2772 3150 2772 3378 
Q 2772 3750 2511 3984 
Q 2250 4219 1831 4219 
Q 1534 4219 1204 4116 
Q 875 4013 500 3803 
L 500 4441 
Q 881 4594 1212 4672 
Q 1544 4750 1819 4750 
Q 2544 4750 2975 4387 
Q 3406 4025 3406 3419 
Q 3406 3131 3298 2873 
Q 3191 2616 2906 2266 
Q 2828 2175 2409 1742 
Q 1991 1309 1228 531 
z
" transform="scale(0.015625)"/>
        <path id="DejaVuSans-36" d="M 2113 2584 
Q 1688 2584 1439 2293 
Q 1191 2003 1191 1497 
Q 1191 994 1439 701 
Q 1688 409 2113 409 
Q 2538 409 2786 701 
Q 3034 994 3034 1497 
Q 3034 2003 2786 2293 
Q 2538 2584 2113 2584 
z
M 3366 4563 
L 3366 3988 
Q 3128 4100 2886 4159 
Q 2644 4219 2406 4219 
Q 1781 4219 1451 3797 
Q 1122 3375 1075 2522 
Q 1259 2794 1537 2939 
Q 1816 3084 2150 3084 
Q 2853 3084 3261 2657 
Q 3669 2231 3669 1497 
Q 3669 778 3244 343 
Q 2819 -91 2113 -91 
Q 1303 -91 875 529 
Q 447 1150 447 2328 
Q 447 3434 972 4092 
Q 1497 4750 2381 4750 
Q 2619 4750 2861 4703 
Q 3103 4656 3366 4563 
z
" transform="scale(0.015625)"/>
        <path id="DejaVuSans-30" d="M 2034 4250 
Q 1547 4250 1301 3770 
Q 1056 3291 1056 2328 
Q 1056 1369 1301 889 
Q 1547 409 2034 409 
Q 2525 409 2770 889 
Q 3016 1369 3016 2328 
Q 3016 3291 2770 3770 
Q 2525 4250 2034 4250 
z
M 2034 4750 
Q 2819 4750 3233 4129 
Q 3647 3509 3647 2328 
Q 3647 1150 3233 529 
Q 2819 -91 2034 -91 
Q 1250 -91 836 529 
Q 422 1150 422 2328 
Q 422 3509 836 4129 
Q 1250 4750 2034 4750 
z
" transform="scale(0.015625)"/>
       </defs>
       <use xlink:href="#DejaVuSans-32"/>
       <use xlink:href="#DejaVuSans-36" transform="translate(63.623047 0)"/>
       <use xlink:href="#DejaVuSans-30" transform="translate(127.246094 0)"/>
      </g>
     </g>
    </g>
    <g id="xtick_2">
     <g id="line2d_2">
      <g>
       <use xlink:href="#md1b5442fa7" x="290.389601" y="307.584" style="stroke: #000000; stroke-width: 0.8"/>
      </g>
     </g>
     <g id="text_2">
      <!-- 280 -->
      <g transform="translate(280.845851 322.182437) scale(0.1 -0.1)">
       <defs>
        <path id="DejaVuSans-38" d="M 2034 2216 
Q 1584 2216 1326 1975 
Q 1069 1734 1069 1313 
Q 1069 891 1326 650 
Q 1584 409 2034 409 
Q 2484 409 2743 651 
Q 3003 894 3003 1313 
Q 3003 1734 2745 1975 
Q 2488 2216 2034 2216 
z
M 1403 2484 
Q 997 2584 770 2862 
Q 544 3141 544 3541 
Q 544 4100 942 4425 
Q 1341 4750 2034 4750 
Q 2731 4750 3128 4425 
Q 3525 4100 3525 3541 
Q 3525 3141 3298 2862 
Q 3072 2584 2669 2484 
Q 3125 2378 3379 2068 
Q 3634 1759 3634 1313 
Q 3634 634 3220 271 
Q 2806 -91 2034 -91 
Q 1263 -91 848 271 
Q 434 634 434 1313 
Q 434 1759 690 2068 
Q 947 2378 1403 2484 
z
M 1172 3481 
Q 1172 3119 1398 2916 
Q 1625 2713 2034 2713 
Q 2441 2713 2670 2916 
Q 2900 3119 2900 3481 
Q 2900 3844 2670 4047 
Q 2441 4250 2034 4250 
Q 1625 4250 1398 4047 
Q 1172 3844 1172 3481 
z
" transform="scale(0.015625)"/>
       </defs>
       <use xlink:href="#DejaVuSans-32"/>
       <use xlink:href="#DejaVuSans-38" transform="translate(63.623047 0)"/>
       <use xlink:href="#DejaVuSans-30" transform="translate(127.246094 0)"/>
      </g>
     </g>
    </g>
    <g id="xtick_3">
     <g id="line2d_3">
      <g>
       <use xlink:href="#md1b5442fa7" x="218.083466" y="307.584" style="stroke: #000000; stroke-width: 0.8"/>
      </g>
     </g>
     <g id="text_3">
      <!-- 300 -->
      <g transform="translate(208.539716 322.182437) scale(0.1 -0.1)">
       <defs>
        <path id="DejaVuSans-33" d="M 2597 2516 
Q 3050 2419 3304 2112 
Q 3559 1806 3559 1356 
Q 3559 666 3084 287 
Q 2609 -91 1734 -91 
Q 1441 -91 1130 -33 
Q 819 25 488 141 
L 488 750 
Q 750 597 1062 519 
Q 1375 441 1716 441 
Q 2309 441 2620 675 
Q 2931 909 2931 1356 
Q 2931 1769 2642 2001 
Q 2353 2234 1838 2234 
L 1294 2234 
L 1294 2753 
L 1863 2753 
Q 2328 2753 2575 2939 
Q 2822 3125 2822 3475 
Q 2822 3834 2567 4026 
Q 2313 4219 1838 4219 
Q 1578 4219 1281 4162 
Q 984 4106 628 3988 
L 628 4550 
Q 988 4650 1302 4700 
Q 1616 4750 1894 4750 
Q 2613 4750 3031 4423 
Q 3450 4097 3450 3541 
Q 3450 3153 3228 2886 
Q 3006 2619 2597 2516 
z
" transform="scale(0.015625)"/>
       </defs>
       <use xlink:href="#DejaVuSans-33"/>
       <use xlink:href="#DejaVuSans-30" transform="translate(63.623047 0)"/>
       <use xlink:href="#DejaVuSans-30" transform="translate(127.246094 0)"/>
      </g>
     </g>
    </g>
    <g id="xtick_4">
     <g id="line2d_4">
      <g>
       <use xlink:href="#md1b5442fa7" x="145.777331" y="307.584" style="stroke: #000000; stroke-width: 0.8"/>
      </g>
     </g>
     <g id="text_4">
      <!-- 320 -->
      <g transform="translate(136.233581 322.182437) scale(0.1 -0.1)">
       <use xlink:href="#DejaVuSans-33"/>
       <use xlink:href="#DejaVuSans-32" transform="translate(63.623047 0)"/>
       <use xlink:href="#DejaVuSans-30" transform="translate(127.246094 0)"/>
      </g>
     </g>
    </g>
    <g id="xtick_5">
     <g id="line2d_5">
      <g>
       <use xlink:href="#md1b5442fa7" x="73.471197" y="307.584" style="stroke: #000000; stroke-width: 0.8"/>
      </g>
     </g>
     <g id="text_5">
      <!-- 340 -->
      <g transform="translate(63.927447 322.182437) scale(0.1 -0.1)">
       <defs>
        <path id="DejaVuSans-34" d="M 2419 4116 
L 825 1625 
L 2419 1625 
L 2419 4116 
z
M 2253 4666 
L 3047 4666 
L 3047 1625 
L 3713 1625 
L 3713 1100 
L 3047 1100 
L 3047 0 
L 2419 0 
L 2419 1100 
L 313 1100 
L 313 1709 
L 2253 4666 
z
" transform="scale(0.015625)"/>
       </defs>
       <use xlink:href="#DejaVuSans-33"/>
       <use xlink:href="#DejaVuSans-34" transform="translate(63.623047 0)"/>
       <use xlink:href="#DejaVuSans-30" transform="translate(127.246094 0)"/>
      </g>
     </g>
    </g>
    <g id="text_6">
     <!-- Binding Energy (eV) -->
     <g transform="translate(186.182656 335.860562) scale(0.1 -0.1)">
      <defs>
       <path id="DejaVuSans-42" d="M 1259 2228 
L 1259 519 
L 2272 519 
Q 2781 519 3026 730 
Q 3272 941 3272 1375 
Q 3272 1813 3026 2020 
Q 2781 2228 2272 2228 
L 1259 2228 
z
M 1259 4147 
L 1259 2741 
L 2194 2741 
Q 2656 2741 2882 2914 
Q 3109 3088 3109 3444 
Q 3109 3797 2882 3972 
Q 2656 4147 2194 4147 
L 1259 4147 
z
M 628 4666 
L 2241 4666 
Q 2963 4666 3353 4366 
Q 3744 4066 3744 3513 
Q 3744 3084 3544 2831 
Q 3344 2578 2956 2516 
Q 3422 2416 3680 2098 
Q 3938 1781 3938 1306 
Q 3938 681 3513 340 
Q 3088 0 2303 0 
L 628 0 
L 628 4666 
z
" transform="scale(0.015625)"/>
       <path id="DejaVuSans-69" d="M 603 3500 
L 1178 3500 
L 1178 0 
L 603 0 
L 603 3500 
z
M 603 4863 
L 1178 4863 
L 1178 4134 
L 603 4134 
L 603 4863 
z
" transform="scale(0.015625)"/>
       <path id="DejaVuSans-6e" d="M 3513 2113 
L 3513 0 
L 2938 0 
L 2938 2094 
Q 2938 2591 2744 2837 
Q 2550 3084 2163 3084 
Q 1697 3084 1428 2787 
Q 1159 2491 1159 1978 
L 1159 0 
L 581 0 
L 581 3500 
L 1159 3500 
L 1159 2956 
Q 1366 3272 1645 3428 
Q 1925 3584 2291 3584 
Q 2894 3584 3203 3211 
Q 3513 2838 3513 2113 
z
" transform="scale(0.015625)"/>
       <path id="DejaVuSans-64" d="M 2906 2969 
L 2906 4863 
L 3481 4863 
L 3481 0 
L 2906 0 
L 2906 525 
Q 2725 213 2448 61 
Q 2172 -91 1784 -91 
Q 1150 -91 751 415 
Q 353 922 353 1747 
Q 353 2572 751 3078 
Q 1150 3584 1784 3584 
Q 2172 3584 2448 3432 
Q 2725 3281 2906 2969 
z
M 947 1747 
Q 947 1113 1208 752 
Q 1469 391 1925 391 
Q 2381 391 2643 752 
Q 2906 1113 2906 1747 
Q 2906 2381 2643 2742 
Q 2381 3103 1925 3103 
Q 1469 3103 1208 2742 
Q 947 2381 947 1747 
z
" transform="scale(0.015625)"/>
       <path id="DejaVuSans-67" d="M 2906 1791 
Q 2906 2416 2648 2759 
Q 2391 3103 1925 3103 
Q 1463 3103 1205 2759 
Q 947 2416 947 1791 
Q 947 1169 1205 825 
Q 1463 481 1925 481 
Q 2391 481 2648 825 
Q 2906 1169 2906 1791 
z
M 3481 434 
Q 3481 -459 3084 -895 
Q 2688 -1331 1869 -1331 
Q 1566 -1331 1297 -1286 
Q 1028 -1241 775 -1147 
L 775 -588 
Q 1028 -725 1275 -790 
Q 1522 -856 1778 -856 
Q 2344 -856 2625 -561 
Q 2906 -266 2906 331 
L 2906 616 
Q 2728 306 2450 153 
Q 2172 0 1784 0 
Q 1141 0 747 490 
Q 353 981 353 1791 
Q 353 2603 747 3093 
Q 1141 3584 1784 3584 
Q 2172 3584 2450 3431 
Q 2728 3278 2906 2969 
L 2906 3500 
L 3481 3500 
L 3481 434 
z
" transform="scale(0.015625)"/>
       <path id="DejaVuSans-20" transform="scale(0.015625)"/>
       <path id="DejaVuSans-45" d="M 628 4666 
L 3578 4666 
L 3578 4134 
L 1259 4134 
L 1259 2753 
L 3481 2753 
L 3481 2222 
L 1259 2222 
L 1259 531 
L 3634 531 
L 3634 0 
L 628 0 
L 628 4666 
z
" transform="scale(0.015625)"/>
       <path id="DejaVuSans-65" d="M 3597 1894 
L 3597 1613 
L 953 1613 
Q 991 1019 1311 708 
Q 1631 397 2203 397 
Q 2534 397 2845 478 
Q 3156 559 3463 722 
L 3463 178 
Q 3153 47 2828 -22 
Q 2503 -91 2169 -91 
Q 1331 -91 842 396 
Q 353 884 353 1716 
Q 353 2575 817 3079 
Q 1281 3584 2069 3584 
Q 2775 3584 3186 3129 
Q 3597 2675 3597 1894 
z
M 3022 2063 
Q 3016 2534 2758 2815 
Q 2500 3097 2075 3097 
Q 1594 3097 1305 2825 
Q 1016 2553 972 2059 
L 3022 2063 
z
" transform="scale(0.015625)"/>
       <path id="DejaVuSans-72" d="M 2631 2963 
Q 2534 3019 2420 3045 
Q 2306 3072 2169 3072 
Q 1681 3072 1420 2755 
Q 1159 2438 1159 1844 
L 1159 0 
L 581 0 
L 581 3500 
L 1159 3500 
L 1159 2956 
Q 1341 3275 1631 3429 
Q 1922 3584 2338 3584 
Q 2397 3584 2469 3576 
Q 2541 3569 2628 3553 
L 2631 2963 
z
" transform="scale(0.015625)"/>
       <path id="DejaVuSans-79" d="M 2059 -325 
Q 1816 -950 1584 -1140 
Q 1353 -1331 966 -1331 
L 506 -1331 
L 506 -850 
L 844 -850 
Q 1081 -850 1212 -737 
Q 1344 -625 1503 -206 
L 1606 56 
L 191 3500 
L 800 3500 
L 1894 763 
L 2988 3500 
L 3597 3500 
L 2059 -325 
z
" transform="scale(0.015625)"/>
       <path id="DejaVuSans-28" d="M 1984 4856 
Q 1566 4138 1362 3434 
Q 1159 2731 1159 2009 
Q 1159 1288 1364 580 
Q 1569 -128 1984 -844 
L 1484 -844 
Q 1016 -109 783 600 
Q 550 1309 550 2009 
Q 550 2706 781 3412 
Q 1013 4119 1484 4856 
L 1984 4856 
z
" transform="scale(0.015625)"/>
       <path id="DejaVuSans-56" d="M 1831 0 
L 50 4666 
L 709 4666 
L 2188 738 
L 3669 4666 
L 4325 4666 
L 2547 0 
L 1831 0 
z
" transform="scale(0.015625)"/>
       <path id="DejaVuSans-29" d="M 513 4856 
L 1013 4856 
Q 1481 4119 1714 3412 
Q 1947 2706 1947 2009 
Q 1947 1309 1714 600 
Q 1481 -109 1013 -844 
L 513 -844 
Q 928 -128 1133 580 
Q 1338 1288 1338 2009 
Q 1338 2731 1133 3434 
Q 928 4138 513 4856 
z
" transform="scale(0.015625)"/>
      </defs>
      <use xlink:href="#DejaVuSans-42"/>
      <use xlink:href="#DejaVuSans-69" transform="translate(68.603516 0)"/>
      <use xlink:href="#DejaVuSans-6e" transform="translate(96.386719 0)"/>
      <use xlink:href="#DejaVuSans-64" transform="translate(159.765625 0)"/>
      <use xlink:href="#DejaVuSans-69" transform="translate(223.242188 0)"/>
      <use xlink:href="#DejaVuSans-6e" transform="translate(251.025391 0)"/>
      <use xlink:href="#DejaVuSans-67" transform="translate(314.404297 0)"/>
      <use xlink:href="#DejaVuSans-20" transform="translate(377.880859 0)"/>
      <use xlink:href="#DejaVuSans-45" transform="translate(409.667969 0)"/>
      <use xlink:href="#DejaVuSans-6e" transform="translate(472.851562 0)"/>
      <use xlink:href="#DejaVuSans-65" transform="translate(536.230469 0)"/>
      <use xlink:href="#DejaVuSans-72" transform="translate(597.753906 0)"/>
      <use xlink:href="#DejaVuSans-67" transform="translate(637.117188 0)"/>
      <use xlink:href="#DejaVuSans-79" transform="translate(700.59375 0)"/>
      <use xlink:href="#DejaVuSans-20" transform="translate(759.773438 0)"/>
      <use xlink:href="#DejaVuSans-28" transform="translate(791.560547 0)"/>
      <use xlink:href="#DejaVuSans-65" transform="translate(830.574219 0)"/>
      <use xlink:href="#DejaVuSans-56" transform="translate(892.097656 0)"/>
      <use xlink:href="#DejaVuSans-29" transform="translate(960.505859 0)"/>
     </g>
    </g>
   </g>
   <g id="matplotlib.axis_2">
    <g id="ytick_1">
     <g id="line2d_6">
      <defs>
       <path id="ma2f14b8d56" d="M 0 0 
L -3.5 0 
" style="stroke: #000000; stroke-width: 0.8"/>
      </defs>
      <g>
       <use xlink:href="#ma2f14b8d56" x="57.6" y="277.085778" style="stroke: #000000; stroke-width: 0.8"/>
      </g>
     </g>
     <g id="text_7">
      <!-- 5000 -->
      <g transform="translate(25.15 280.884997) scale(0.1 -0.1)">
       <defs>
        <path id="DejaVuSans-35" d="M 691 4666 
L 3169 4666 
L 3169 4134 
L 1269 4134 
L 1269 2991 
Q 1406 3038 1543 3061 
Q 1681 3084 1819 3084 
Q 2600 3084 3056 2656 
Q 3513 2228 3513 1497 
Q 3513 744 3044 326 
Q 2575 -91 1722 -91 
Q 1428 -91 1123 -41 
Q 819 9 494 109 
L 494 744 
Q 775 591 1075 516 
Q 1375 441 1709 441 
Q 2250 441 2565 725 
Q 2881 1009 2881 1497 
Q 2881 1984 2565 2268 
Q 2250 2553 1709 2553 
Q 1456 2553 1204 2497 
Q 953 2441 691 2322 
L 691 4666 
z
" transform="scale(0.015625)"/>
       </defs>
       <use xlink:href="#DejaVuSans-35"/>
       <use xlink:href="#DejaVuSans-30" transform="translate(63.623047 0)"/>
       <use xlink:href="#DejaVuSans-30" transform="translate(127.246094 0)"/>
       <use xlink:href="#DejaVuSans-30" transform="translate(190.869141 0)"/>
      </g>
     </g>
    </g>
    <g id="ytick_2">
     <g id="line2d_7">
      <g>
       <use xlink:href="#ma2f14b8d56" x="57.6" y="245.150034" style="stroke: #000000; stroke-width: 0.8"/>
      </g>
     </g>
     <g id="text_8">
      <!-- 10000 -->
      <g transform="translate(18.7875 248.949253) scale(0.1 -0.1)">
       <defs>
        <path id="DejaVuSans-31" d="M 794 531 
L 1825 531 
L 1825 4091 
L 703 3866 
L 703 4441 
L 1819 4666 
L 2450 4666 
L 2450 531 
L 3481 531 
L 3481 0 
L 794 0 
L 794 531 
z
" transform="scale(0.015625)"/>
       </defs>
       <use xlink:href="#DejaVuSans-31"/>
       <use xlink:href="#DejaVuSans-30" transform="translate(63.623047 0)"/>
       <use xlink:href="#DejaVuSans-30" transform="translate(127.246094 0)"/>
       <use xlink:href="#DejaVuSans-30" transform="translate(190.869141 0)"/>
       <use xlink:href="#DejaVuSans-30" transform="translate(254.492188 0)"/>
      </g>
     </g>
    </g>
    <g id="ytick_3">
     <g id="line2d_8">
      <g>
       <use xlink:href="#ma2f14b8d56" x="57.6" y="213.21429" style="stroke: #000000; stroke-width: 0.8"/>
      </g>
     </g>
     <g id="text_9">
      <!-- 15000 -->
      <g transform="translate(18.7875 217.013509) scale(0.1 -0.1)">
       <use xlink:href="#DejaVuSans-31"/>
       <use xlink:href="#DejaVuSans-35" transform="translate(63.623047 0)"/>
       <use xlink:href="#DejaVuSans-30" transform="translate(127.246094 0)"/>
       <use xlink:href="#DejaVuSans-30" transform="translate(190.869141 0)"/>
       <use xlink:href="#DejaVuSans-30" transform="translate(254.492188 0)"/>
      </g>
     </g>
    </g>
    <g id="ytick_4">
     <g id="line2d_9">
      <g>
       <use xlink:href="#ma2f14b8d56" x="57.6" y="181.278546" style="stroke: #000000; stroke-width: 0.8"/>
      </g>
     </g>
     <g id="text_10">
      <!-- 20000 -->
      <g transform="translate(18.7875 185.077764) scale(0.1 -0.1)">
       <use xlink:href="#DejaVuSans-32"/>
       <use xlink:href="#DejaVuSans-30" transform="translate(63.623047 0)"/>
       <use xlink:href="#DejaVuSans-30" transform="translate(127.246094 0)"/>
       <use xlink:href="#DejaVuSans-30" transform="translate(190.869141 0)"/>
       <use xlink:href="#DejaVuSans-30" transform="translate(254.492188 0)"/>
      </g>
     </g>
    </g>
    <g id="ytick_5">
     <g id="line2d_10">
      <g>
       <use xlink:href="#ma2f14b8d56" x="57.6" y="149.342802" style="stroke: #000000; stroke-width: 0.8"/>
      </g>
     </g>
     <g id="text_11">
      <!-- 25000 -->
      <g transform="translate(18.7875 153.14202) scale(0.1 -0.1)">
       <use xlink:href="#DejaVuSans-32"/>
       <use xlink:href="#DejaVuSans-35" transform="translate(63.623047 0)"/>
       <use xlink:href="#DejaVuSans-30" transform="translate(127.246094 0)"/>
       <use xlink:href="#DejaVuSans-30" transform="translate(190.869141 0)"/>
       <use xlink:href="#DejaVuSans-30" transform="translate(254.492188 0)"/>
      </g>
     </g>
    </g>
    <g id="ytick_6">
     <g id="line2d_11">
      <g>
       <use xlink:href="#ma2f14b8d56" x="57.6" y="117.407057" style="stroke: #000000; stroke-width: 0.8"/>
      </g>
     </g>
     <g id="text_12">
      <!-- 30000 -->
      <g transform="translate(18.7875 121.206276) scale(0.1 -0.1)">
       <use xlink:href="#DejaVuSans-33"/>
       <use xlink:href="#DejaVuSans-30" transform="translate(63.623047 0)"/>
       <use xlink:href="#DejaVuSans-30" transform="translate(127.246094 0)"/>
       <use xlink:href="#DejaVuSans-30" transform="translate(190.869141 0)"/>
       <use xlink:href="#DejaVuSans-30" transform="translate(254.492188 0)"/>
      </g>
     </g>
    </g>
    <g id="ytick_7">
     <g id="line2d_12">
      <g>
       <use xlink:href="#ma2f14b8d56" x="57.6" y="85.471313" style="stroke: #000000; stroke-width: 0.8"/>
      </g>
     </g>
     <g id="text_13">
      <!-- 35000 -->
      <g transform="translate(18.7875 89.270532) scale(0.1 -0.1)">
       <use xlink:href="#DejaVuSans-33"/>
       <use xlink:href="#DejaVuSans-35" transform="translate(63.623047 0)"/>
       <use xlink:href="#DejaVuSans-30" transform="translate(127.246094 0)"/>
       <use xlink:href="#DejaVuSans-30" transform="translate(190.869141 0)"/>
       <use xlink:href="#DejaVuSans-30" transform="translate(254.492188 0)"/>
      </g>
     </g>
    </g>
    <g id="ytick_8">
     <g id="line2d_13">
      <g>
       <use xlink:href="#ma2f14b8d56" x="57.6" y="53.535569" style="stroke: #000000; stroke-width: 0.8"/>
      </g>
     </g>
     <g id="text_14">
      <!-- 40000 -->
      <g transform="translate(18.7875 57.334788) scale(0.1 -0.1)">
       <use xlink:href="#DejaVuSans-34"/>
       <use xlink:href="#DejaVuSans-30" transform="translate(63.623047 0)"/>
       <use xlink:href="#DejaVuSans-30" transform="translate(127.246094 0)"/>
       <use xlink:href="#DejaVuSans-30" transform="translate(190.869141 0)"/>
       <use xlink:href="#DejaVuSans-30" transform="translate(254.492188 0)"/>
      </g>
     </g>
    </g>
    <g id="text_15">
     <!-- Counts per Second -->
     <g transform="translate(12.707812 221.867844) rotate(-90) scale(0.1 -0.1)">
      <defs>
       <path id="DejaVuSans-43" d="M 4122 4306 
L 4122 3641 
Q 3803 3938 3442 4084 
Q 3081 4231 2675 4231 
Q 1875 4231 1450 3742 
Q 1025 3253 1025 2328 
Q 1025 1406 1450 917 
Q 1875 428 2675 428 
Q 3081 428 3442 575 
Q 3803 722 4122 1019 
L 4122 359 
Q 3791 134 3420 21 
Q 3050 -91 2638 -91 
Q 1578 -91 968 557 
Q 359 1206 359 2328 
Q 359 3453 968 4101 
Q 1578 4750 2638 4750 
Q 3056 4750 3426 4639 
Q 3797 4528 4122 4306 
z
" transform="scale(0.015625)"/>
       <path id="DejaVuSans-6f" d="M 1959 3097 
Q 1497 3097 1228 2736 
Q 959 2375 959 1747 
Q 959 1119 1226 758 
Q 1494 397 1959 397 
Q 2419 397 2687 759 
Q 2956 1122 2956 1747 
Q 2956 2369 2687 2733 
Q 2419 3097 1959 3097 
z
M 1959 3584 
Q 2709 3584 3137 3096 
Q 3566 2609 3566 1747 
Q 3566 888 3137 398 
Q 2709 -91 1959 -91 
Q 1206 -91 779 398 
Q 353 888 353 1747 
Q 353 2609 779 3096 
Q 1206 3584 1959 3584 
z
" transform="scale(0.015625)"/>
       <path id="DejaVuSans-75" d="M 544 1381 
L 544 3500 
L 1119 3500 
L 1119 1403 
Q 1119 906 1312 657 
Q 1506 409 1894 409 
Q 2359 409 2629 706 
Q 2900 1003 2900 1516 
L 2900 3500 
L 3475 3500 
L 3475 0 
L 2900 0 
L 2900 538 
Q 2691 219 2414 64 
Q 2138 -91 1772 -91 
Q 1169 -91 856 284 
Q 544 659 544 1381 
z
M 1991 3584 
L 1991 3584 
z
" transform="scale(0.015625)"/>
       <path id="DejaVuSans-74" d="M 1172 4494 
L 1172 3500 
L 2356 3500 
L 2356 3053 
L 1172 3053 
L 1172 1153 
Q 1172 725 1289 603 
Q 1406 481 1766 481 
L 2356 481 
L 2356 0 
L 1766 0 
Q 1100 0 847 248 
Q 594 497 594 1153 
L 594 3053 
L 172 3053 
L 172 3500 
L 594 3500 
L 594 4494 
L 1172 4494 
z
" transform="scale(0.015625)"/>
       <path id="DejaVuSans-73" d="M 2834 3397 
L 2834 2853 
Q 2591 2978 2328 3040 
Q 2066 3103 1784 3103 
Q 1356 3103 1142 2972 
Q 928 2841 928 2578 
Q 928 2378 1081 2264 
Q 1234 2150 1697 2047 
L 1894 2003 
Q 2506 1872 2764 1633 
Q 3022 1394 3022 966 
Q 3022 478 2636 193 
Q 2250 -91 1575 -91 
Q 1294 -91 989 -36 
Q 684 19 347 128 
L 347 722 
Q 666 556 975 473 
Q 1284 391 1588 391 
Q 1994 391 2212 530 
Q 2431 669 2431 922 
Q 2431 1156 2273 1281 
Q 2116 1406 1581 1522 
L 1381 1569 
Q 847 1681 609 1914 
Q 372 2147 372 2553 
Q 372 3047 722 3315 
Q 1072 3584 1716 3584 
Q 2034 3584 2315 3537 
Q 2597 3491 2834 3397 
z
" transform="scale(0.015625)"/>
       <path id="DejaVuSans-70" d="M 1159 525 
L 1159 -1331 
L 581 -1331 
L 581 3500 
L 1159 3500 
L 1159 2969 
Q 1341 3281 1617 3432 
Q 1894 3584 2278 3584 
Q 2916 3584 3314 3078 
Q 3713 2572 3713 1747 
Q 3713 922 3314 415 
Q 2916 -91 2278 -91 
Q 1894 -91 1617 61 
Q 1341 213 1159 525 
z
M 3116 1747 
Q 3116 2381 2855 2742 
Q 2594 3103 2138 3103 
Q 1681 3103 1420 2742 
Q 1159 2381 1159 1747 
Q 1159 1113 1420 752 
Q 1681 391 2138 391 
Q 2594 391 2855 752 
Q 3116 1113 3116 1747 
z
" transform="scale(0.015625)"/>
       <path id="DejaVuSans-53" d="M 3425 4513 
L 3425 3897 
Q 3066 4069 2747 4153 
Q 2428 4238 2131 4238 
Q 1616 4238 1336 4038 
Q 1056 3838 1056 3469 
Q 1056 3159 1242 3001 
Q 1428 2844 1947 2747 
L 2328 2669 
Q 3034 2534 3370 2195 
Q 3706 1856 3706 1288 
Q 3706 609 3251 259 
Q 2797 -91 1919 -91 
Q 1588 -91 1214 -16 
Q 841 59 441 206 
L 441 856 
Q 825 641 1194 531 
Q 1563 422 1919 422 
Q 2459 422 2753 634 
Q 3047 847 3047 1241 
Q 3047 1584 2836 1778 
Q 2625 1972 2144 2069 
L 1759 2144 
Q 1053 2284 737 2584 
Q 422 2884 422 3419 
Q 422 4038 858 4394 
Q 1294 4750 2059 4750 
Q 2388 4750 2728 4690 
Q 3069 4631 3425 4513 
z
" transform="scale(0.015625)"/>
       <path id="DejaVuSans-63" d="M 3122 3366 
L 3122 2828 
Q 2878 2963 2633 3030 
Q 2388 3097 2138 3097 
Q 1578 3097 1268 2742 
Q 959 2388 959 1747 
Q 959 1106 1268 751 
Q 1578 397 2138 397 
Q 2388 397 2633 464 
Q 2878 531 3122 666 
L 3122 134 
Q 2881 22 2623 -34 
Q 2366 -91 2075 -91 
Q 1284 -91 818 406 
Q 353 903 353 1747 
Q 353 2603 823 3093 
Q 1294 3584 2113 3584 
Q 2378 3584 2631 3529 
Q 2884 3475 3122 3366 
z
" transform="scale(0.015625)"/>
      </defs>
      <use xlink:href="#DejaVuSans-43"/>
      <use xlink:href="#DejaVuSans-6f" transform="translate(69.824219 0)"/>
      <use xlink:href="#DejaVuSans-75" transform="translate(131.005859 0)"/>
      <use xlink:href="#DejaVuSans-6e" transform="translate(194.384766 0)"/>
      <use xlink:href="#DejaVuSans-74" transform="translate(257.763672 0)"/>
      <use xlink:href="#DejaVuSans-73" transform="translate(296.972656 0)"/>
      <use xlink:href="#DejaVuSans-20" transform="translate(349.072266 0)"/>
      <use xlink:href="#DejaVuSans-70" transform="translate(380.859375 0)"/>
      <use xlink:href="#DejaVuSans-65" transform="translate(444.335938 0)"/>
      <use xlink:href="#DejaVuSans-72" transform="translate(505.859375 0)"/>
      <use xlink:href="#DejaVuSans-20" transform="translate(546.972656 0)"/>
      <use xlink:href="#DejaVuSans-53" transform="translate(578.759766 0)"/>
      <use xlink:href="#DejaVuSans-65" transform="translate(642.236328 0)"/>
      <use xlink:href="#DejaVuSans-63" transform="translate(703.759766 0)"/>
      <use xlink:href="#DejaVuSans-6f" transform="translate(758.740234 0)"/>
      <use xlink:href="#DejaVuSans-6e" transform="translate(819.921875 0)"/>
      <use xlink:href="#DejaVuSans-64" transform="translate(883.300781 0)"/>
     </g>
    </g>
   </g>
   <g id="line2d_14">
    <path d="M 73.832727 248.124737 
L 74.555789 248.99244 
L 75.27885 245.752524 
L 76.001911 250.978317 
L 76.724973 248.628699 
L 77.448034 247.875858 
L 78.171095 246.813072 
L 78.894157 248.658862 
L 79.617218 249.527648 
L 80.340279 251.696427 
L 81.063341 249.452829 
L 81.786402 247.990332 
L 82.509463 249.581435 
L 83.232525 250.700754 
L 83.955586 252.617566 
L 85.401709 246.274255 
L 86.847832 252.986107 
L 87.570893 253.213468 
L 88.293954 250.632456 
L 89.017016 250.884208 
L 89.740077 246.806375 
L 90.463138 250.97497 
L 91.1862 248.648892 
L 91.909261 249.508091 
L 92.632322 249.470978 
L 93.355384 248.474401 
L 94.078445 250.087335 
L 94.801506 248.588945 
L 95.524568 247.962423 
L 96.247629 250.916761 
L 96.97069 250.077968 
L 97.693752 248.234133 
L 98.416813 250.300014 
L 99.139874 246.456391 
L 99.862936 250.449809 
L 100.585997 247.597845 
L 101.309059 250.466042 
L 102.755181 248.911518 
L 104.201304 249.104442 
L 104.924365 251.86081 
L 105.647427 247.717993 
L 106.370488 248.552465 
L 107.093549 247.906414 
L 108.539672 253.370668 
L 109.262733 251.953459 
L 109.985795 246.621189 
L 110.708856 249.944129 
L 111.431917 249.67294 
L 112.154979 246.509615 
L 112.87804 251.753071 
L 113.601101 251.389806 
L 114.324163 251.164959 
L 115.047224 248.877497 
L 115.770285 245.565403 
L 116.493347 250.412118 
L 117.216408 252.622126 
L 117.93947 248.947063 
L 118.662531 247.783756 
L 119.385592 246.865038 
L 120.108654 248.635629 
L 120.831715 248.251748 
L 121.554776 247.172365 
L 122.277838 248.914297 
L 123.000899 247.176047 
L 123.72396 247.83597 
L 124.447022 250.797378 
L 125.170083 249.794586 
L 125.893144 250.415957 
L 126.616206 248.765598 
L 127.339267 246.648999 
L 128.062328 250.834734 
L 128.78539 250.067647 
L 129.508451 248.394236 
L 130.231512 249.263128 
L 130.954574 248.717675 
L 131.677635 248.749805 
L 132.400696 248.172126 
L 133.123758 248.631669 
L 133.846819 248.91048 
L 134.569881 248.133749 
L 135.292942 250.353609 
L 136.016003 254.060684 
L 136.739065 247.486961 
L 137.462126 248.042553 
L 138.185187 252.163388 
L 138.908249 249.772145 
L 139.63131 249.151516 
L 140.354371 244.926557 
L 141.077433 249.908444 
L 141.800494 246.808032 
L 142.523555 251.738196 
L 143.246617 250.532918 
L 143.969678 249.092246 
L 144.692739 252.391464 
L 145.415801 252.227177 
L 146.138862 248.382666 
L 146.861923 247.057958 
L 147.584985 248.155532 
L 148.308046 250.803012 
L 149.031108 250.081267 
L 150.47723 252.185616 
L 151.200292 251.930471 
L 151.923353 247.832058 
L 152.646414 249.359388 
L 153.369476 249.990452 
L 154.092537 249.481712 
L 154.815598 250.519224 
L 155.53866 252.010857 
L 156.261721 249.547675 
L 156.984782 248.267521 
L 157.707844 246.660802 
L 158.430905 250.024019 
L 159.153966 251.747163 
L 159.877028 250.675777 
L 160.600089 251.615939 
L 161.32315 250.112635 
L 162.046212 247.687504 
L 162.769273 246.571762 
L 163.492334 249.019844 
L 164.215396 248.086867 
L 164.938457 248.562889 
L 165.661519 245.505613 
L 166.38458 248.392416 
L 167.107641 245.640621 
L 167.830703 246.211367 
L 168.553764 249.264897 
L 169.276825 247.05921 
L 169.999887 248.686151 
L 170.722948 249.79808 
L 171.446009 245.417569 
L 172.169071 245.728607 
L 172.892132 247.183092 
L 173.615193 246.294058 
L 174.338255 244.204867 
L 175.061316 246.409535 
L 175.784377 248.215766 
L 176.507439 246.425608 
L 177.953561 246.347726 
L 178.676623 246.830464 
L 179.399684 248.026458 
L 180.122745 246.279346 
L 180.845807 245.218309 
L 181.568868 245.684763 
L 182.29193 240.618441 
L 183.014991 243.507738 
L 183.738052 245.30314 
L 184.461114 248.636437 
L 185.184175 242.349253 
L 185.907236 244.869747 
L 186.630298 242.948709 
L 187.353359 246.635215 
L 188.07642 244.624384 
L 188.799482 246.045384 
L 189.522543 243.545694 
L 190.968666 244.808727 
L 191.691727 244.90493 
L 192.414788 247.771409 
L 193.13785 242.998338 
L 193.860911 246.608178 
L 195.307034 246.159312 
L 196.030095 247.955573 
L 196.753157 248.647221 
L 197.476218 245.133986 
L 198.199279 247.69302 
L 198.922341 249.212909 
L 199.645402 246.341263 
L 200.368463 249.447953 
L 201.091525 248.282145 
L 201.814586 248.807344 
L 202.537647 252.79014 
L 203.260709 252.139286 
L 204.706831 253.453931 
L 205.429893 254.797084 
L 206.152954 253.961131 
L 206.876015 255.146353 
L 207.599077 256.025126 
L 208.322138 258.472665 
L 209.045199 255.105309 
L 209.768261 255.696235 
L 210.491322 258.197238 
L 211.214383 259.13439 
L 211.937445 257.862236 
L 212.660506 258.810718 
L 213.383568 258.177607 
L 214.106629 260.240277 
L 214.82969 259.90666 
L 215.552752 262.517531 
L 216.275813 261.945128 
L 216.998874 261.832612 
L 217.721936 264.97782 
L 218.444997 263.914059 
L 219.89112 266.112854 
L 221.337242 264.776382 
L 222.060304 267.781538 
L 222.783365 266.319338 
L 223.506426 268.519225 
L 224.229488 270.027895 
L 224.952549 269.612328 
L 225.67561 273.569253 
L 226.398672 271.002386 
L 227.844794 271.242881 
L 228.567856 275.297169 
L 229.290917 272.605634 
L 230.013979 273.414537 
L 230.73704 276.770662 
L 231.460101 273.637858 
L 232.183163 274.45563 
L 232.906224 276.229769 
L 233.629285 278.67142 
L 234.352347 276.929239 
L 235.075408 280.12989 
L 235.798469 277.412909 
L 236.521531 278.281283 
L 237.244592 281.784561 
L 237.967653 280.581774 
L 238.690715 279.718839 
L 239.413776 281.030816 
L 240.136837 279.762881 
L 240.859899 280.707148 
L 241.58296 278.336248 
L 242.306021 277.755282 
L 243.029083 275.689927 
L 243.752144 278.812956 
L 244.475206 275.603177 
L 245.198267 274.326498 
L 245.921328 271.964291 
L 246.64439 270.669667 
L 248.090512 266.273679 
L 248.813574 266.169313 
L 249.536635 261.901801 
L 250.259696 264.00734 
L 250.982758 260.913099 
L 251.705819 259.004587 
L 252.42888 257.496092 
L 253.875003 249.71644 
L 255.321126 239.61502 
L 256.044187 231.091804 
L 257.49031 208.5523 
L 259.659494 158.799882 
L 260.382555 130.146587 
L 261.105617 106.119407 
L 262.551739 72.784989 
L 263.274801 62.029941 
L 263.997862 53.568 
L 264.720923 64.212474 
L 265.443985 77.284758 
L 266.167046 87.255691 
L 267.613169 126.178759 
L 268.33623 156.969709 
L 270.505414 221.230941 
L 271.951537 250.674506 
L 272.674598 259.824313 
L 274.120721 273.499838 
L 274.843782 277.332989 
L 275.566843 277.65799 
L 276.289905 279.75323 
L 277.012966 282.538899 
L 277.736028 280.710996 
L 278.459089 283.025513 
L 279.18215 282.529781 
L 279.905212 282.64148 
L 280.628273 282.304104 
L 281.351334 280.771747 
L 282.074396 283.202425 
L 282.797457 283.177818 
L 283.520518 282.528935 
L 284.24358 284.278305 
L 284.966641 283.276014 
L 286.412764 281.948324 
L 287.135825 280.019418 
L 287.858886 278.863944 
L 288.581948 279.33743 
L 289.305009 277.401504 
L 290.751132 276.024579 
L 291.474193 273.30617 
L 294.366439 267.366521 
L 295.0895 265.777491 
L 295.812561 267.392095 
L 296.535623 265.550843 
L 297.258684 268.115241 
L 297.981745 266.824676 
L 298.704807 268.748748 
L 299.427868 270.298267 
L 300.150929 269.879471 
L 300.873991 271.072795 
L 301.597052 273.30502 
L 303.043175 278.827052 
L 303.766236 276.24186 
L 304.489297 280.009253 
L 305.93542 284.120124 
L 306.658481 286.973959 
L 307.381543 286.780949 
L 308.104604 286.447109 
L 308.827666 289.801643 
L 309.550727 289.484997 
L 310.273788 288.982028 
L 310.99685 290.760252 
L 311.719911 290.917487 
L 312.442972 290.424284 
L 313.166034 290.291847 
L 313.889095 290.996758 
L 314.612156 291.119133 
L 315.335218 290.892938 
L 316.058279 291.800734 
L 316.78134 292.353721 
L 317.504402 290.685809 
L 318.227463 291.851959 
L 318.950524 291.464626 
L 319.673586 289.555437 
L 321.119708 291.091087 
L 321.84277 290.42066 
L 322.565831 291.407742 
L 323.288892 290.048209 
L 324.735015 289.67664 
L 325.458077 289.239842 
L 326.181138 290.581344 
L 326.904199 289.260543 
L 327.627261 289.811077 
L 328.350322 288.726791 
L 329.073383 289.705973 
L 329.796445 288.832613 
L 330.519506 289.660289 
L 331.242567 290.8248 
L 332.68869 291.564023 
L 333.411751 288.622419 
L 334.134813 289.245463 
L 334.857874 292.778329 
L 335.580935 289.042945 
L 336.303997 290.202082 
L 337.027058 289.404458 
L 337.750119 290.830271 
L 338.473181 288.890864 
L 339.196242 289.937105 
L 339.919304 288.87381 
L 340.642365 291.189235 
L 341.365426 290.654905 
L 342.088488 292.275999 
L 342.811549 291.552539 
L 343.53461 292.667457 
L 344.257672 289.817218 
L 345.703794 292.518436 
L 346.426856 292.851976 
L 347.149917 292.828018 
L 347.872978 294.140149 
L 348.59604 292.290111 
L 349.319101 293.546818 
L 350.042162 292.279799 
L 350.765224 291.353745 
L 351.488285 293.668343 
L 352.211346 293.245744 
L 352.934408 293.789593 
L 353.657469 292.674119 
L 354.38053 293.44227 
L 355.103592 292.500641 
L 355.826653 292.990302 
L 356.549715 293.842852 
L 357.272776 292.433336 
L 357.995837 293.052612 
L 358.718899 293.919227 
L 359.44196 292.269136 
L 360.165021 291.649742 
L 360.888083 293.214772 
L 361.611144 293.428984 
L 362.334205 294.030044 
L 363.057267 294.089732 
L 363.780328 293.920354 
L 364.503389 292.949524 
L 365.226451 292.20337 
L 366.672573 293.075072 
L 367.395635 292.463864 
L 368.118696 289.348762 
L 368.841757 292.365313 
L 369.564819 291.034481 
L 371.010941 294.115699 
L 371.734003 292.301586 
L 372.457064 292.560789 
L 373.180126 294.729753 
L 373.903187 293.284612 
L 374.626248 294.30921 
L 375.34931 292.891883 
L 376.072371 293.267945 
L 376.795432 294.486227 
L 377.518494 294.735428 
L 378.241555 294.016842 
L 378.964616 295.090001 
L 379.687678 294.523129 
L 380.410739 294.560059 
L 381.1338 293.152651 
L 381.856862 292.342808 
L 382.579923 293.365988 
L 383.302984 293.348174 
L 384.026046 292.479637 
L 384.749107 295.163967 
L 385.472168 293.651711 
L 386.19523 295.488 
L 386.918291 293.812769 
L 387.641353 292.941932 
L 388.364414 293.142997 
L 389.087475 293.126636 
L 389.810537 294.539231 
L 390.533598 295.087497 
L 391.256659 294.630902 
L 391.979721 293.195895 
L 392.702782 294.515359 
L 393.425843 294.434609 
L 394.148905 293.02304 
L 394.871966 292.928475 
L 395.595027 294.535529 
L 396.318089 293.179985 
L 397.04115 292.67813 
L 397.764211 293.018291 
L 398.487273 293.734249 
L 398.487273 293.734249 
" clip-path="url(#pa5245f59e0)" style="fill: none; stroke: #000000; stroke-width: 1.5; stroke-linecap: square"/>
   </g>
   <g id="line2d_15">
    <path d="M 73.832727 250.141782 
L 119.385592 250.985274 
L 139.63131 251.916911 
L 142.523555 252.113157 
L 152.646414 252.675784 
L 162.769273 253.424597 
L 167.107641 253.898826 
L 181.568868 255.851826 
L 183.738052 256.272441 
L 185.907236 256.649126 
L 191.691727 257.742129 
L 196.753157 258.643688 
L 200.368463 259.279472 
L 203.98377 259.795387 
L 209.768261 260.359034 
L 216.275813 260.690792 
L 219.89112 260.67307 
L 224.229488 260.489654 
L 227.844794 260.126895 
L 234.352347 259.011472 
L 238.690715 257.837609 
L 243.029083 256.355818 
L 246.64439 254.774249 
L 248.090512 253.992283 
L 249.536635 252.99026 
L 250.982758 251.544534 
L 251.705819 250.556135 
L 252.42888 249.270278 
L 253.151942 247.565707 
L 253.875003 245.243494 
L 254.598064 242.028199 
L 255.321126 237.537246 
L 256.044187 231.32993 
L 256.767248 222.899554 
L 257.49031 211.707855 
L 258.213371 197.388998 
L 258.936432 179.812604 
L 260.382555 136.583314 
L 261.828678 91.154809 
L 262.551739 72.495211 
L 263.274801 59.419582 
L 263.997862 53.652947 
L 264.720923 55.996144 
L 265.443985 66.407678 
L 266.167046 83.91139 
L 267.613169 132.400644 
L 269.059291 183.96642 
L 269.782353 206.471849 
L 270.505414 225.514195 
L 271.228475 240.884141 
L 271.951537 252.758697 
L 272.674598 261.62808 
L 273.397659 268.070654 
L 274.120721 272.643603 
L 274.843782 275.862217 
L 275.566843 278.147246 
L 276.289905 279.775477 
L 277.012966 280.946845 
L 277.736028 281.83937 
L 279.18215 283.040738 
L 280.628273 283.808563 
L 282.074396 284.303273 
L 283.520518 284.535542 
L 284.966641 284.436345 
L 285.689702 284.223733 
L 286.412764 283.856474 
L 287.135825 283.30296 
L 287.858886 282.514077 
L 288.581948 281.441458 
L 289.305009 280.089994 
L 290.751132 276.624713 
L 292.920316 271.057528 
L 293.643377 269.676381 
L 294.366439 268.758854 
L 295.0895 268.367915 
L 295.812561 268.477205 
L 296.535623 269.058175 
L 297.258684 269.978072 
L 298.704807 272.489871 
L 300.873991 276.904016 
L 305.212359 286.116057 
L 306.658481 288.335716 
L 308.104604 289.843252 
L 309.550727 290.720538 
L 310.99685 291.216216 
L 313.166034 291.588999 
L 316.058279 291.811393 
L 320.396647 291.874279 
L 322.565831 291.693053 
L 327.627261 291.089221 
L 329.796445 291.277466 
L 332.68869 291.650832 
L 334.134813 291.738651 
L 337.027058 291.72386 
L 338.473181 291.840714 
L 340.642365 292.236685 
L 343.53461 292.784157 
L 345.703794 293.053484 
L 349.319101 293.188582 
L 357.272776 293.291997 
L 384.749107 293.416165 
L 398.487273 293.355628 
L 398.487273 293.355628 
" clip-path="url(#pa5245f59e0)" style="fill: none; stroke: #1f77b4; stroke-width: 1.5; stroke-linecap: square"/>
   </g>
   <g id="line2d_16">
    <path d="M 73.832727 250.466278 
L 117.93947 251.326091 
L 155.53866 253.420711 
L 164.938457 254.264221 
L 182.29193 256.78938 
L 201.091525 260.440527 
L 203.98377 260.88886 
L 209.768261 261.586169 
L 216.998874 262.158017 
L 224.229488 262.257801 
L 227.844794 262.113673 
L 236.521531 261.299921 
L 241.58296 260.583313 
L 245.921328 260.200581 
L 248.813574 260.214517 
L 252.42888 260.551252 
L 253.875003 260.842614 
L 255.321126 261.303867 
L 256.767248 262.056924 
L 257.49031 262.577664 
L 258.213371 263.239074 
L 259.659494 265.011506 
L 261.105617 267.620495 
L 262.551739 270.884257 
L 266.167046 279.750315 
L 267.613169 282.578392 
L 269.059291 284.559795 
L 269.782353 285.280497 
L 271.228475 286.271238 
L 272.674598 286.8242 
L 274.120721 287.13434 
L 277.736028 287.520953 
L 287.135825 288.262564 
L 291.474193 288.912751 
L 294.366439 289.606334 
L 300.150929 291.177811 
L 302.320113 291.642789 
L 305.93542 292.149295 
L 310.99685 292.392555 
L 328.350322 292.857871 
L 344.980733 293.412101 
L 363.057267 293.507272 
L 368.841757 293.586403 
L 373.180126 293.622014 
L 389.810537 293.578088 
L 397.04115 293.555805 
L 398.487273 293.558869 
L 398.487273 293.558869 
" clip-path="url(#pa5245f59e0)" style="fill: none; stroke-dasharray: 5.55,2.4; stroke-dashoffset: 0; stroke: #ff7f0e; stroke-width: 1.5"/>
   </g>
   <g id="line2d_17">
    <path d="M 73.832727 250.141782 
L 119.385592 250.985274 
L 139.63131 251.916911 
L 142.523555 252.113157 
L 152.646414 252.675784 
L 162.769273 253.424597 
L 167.107641 253.898826 
L 181.568868 255.851826 
L 183.738052 256.272441 
L 185.907236 256.649126 
L 191.691727 257.742129 
L 196.753157 258.643688 
L 200.368463 259.279472 
L 203.98377 259.795387 
L 209.768261 260.359034 
L 216.275813 260.690792 
L 219.89112 260.67307 
L 224.229488 260.489654 
L 227.844794 260.126895 
L 234.352347 259.011472 
L 238.690715 257.837609 
L 243.029083 256.355818 
L 246.64439 254.774249 
L 248.090512 253.992283 
L 249.536635 252.99026 
L 250.982758 251.544534 
L 251.705819 250.556135 
L 252.42888 249.270278 
L 253.151942 247.565707 
L 253.875003 245.243494 
L 254.598064 242.028199 
L 255.321126 237.537246 
L 256.044187 231.32993 
L 256.767248 222.899554 
L 257.49031 211.707855 
L 258.213371 197.388998 
L 258.936432 179.812604 
L 260.382555 136.583314 
L 261.828678 91.154809 
L 262.551739 72.495211 
L 263.274801 59.419582 
L 263.997862 53.652947 
L 264.720923 55.996144 
L 265.443985 66.407678 
L 266.167046 83.91139 
L 267.613169 132.400644 
L 269.059291 183.96642 
L 269.782353 206.471849 
L 270.505414 225.514195 
L 271.228475 240.884141 
L 271.951537 252.758697 
L 272.674598 261.62808 
L 273.397659 268.070654 
L 274.120721 272.643603 
L 274.843782 275.862217 
L 275.566843 278.147246 
L 276.289905 279.775477 
L 277.012966 280.946845 
L 277.736028 281.83937 
L 279.18215 283.040738 
L 280.628273 283.808563 
L 282.074396 284.303273 
L 283.520518 284.535542 
L 284.966641 284.436345 
L 285.689702 284.223733 
L 286.412764 283.856474 
L 287.135825 283.30296 
L 287.858886 282.514077 
L 288.581948 281.441458 
L 289.305009 280.089994 
L 290.751132 276.624713 
L 292.920316 271.057528 
L 293.643377 269.676381 
L 294.366439 268.758854 
L 295.0895 268.367915 
L 295.812561 268.477205 
L 296.535623 269.058175 
L 297.258684 269.978072 
L 298.704807 272.489871 
L 300.873991 276.904016 
L 305.212359 286.116057 
L 306.658481 288.335716 
L 308.104604 289.843252 
L 309.550727 290.720538 
L 310.99685 291.216216 
L 313.166034 291.588999 
L 316.058279 291.811393 
L 320.396647 291.874279 
L 322.565831 291.693053 
L 327.627261 291.089221 
L 329.796445 291.277466 
L 332.68869 291.650832 
L 334.134813 291.738651 
L 337.027058 291.72386 
L 338.473181 291.840714 
L 340.642365 292.236685 
L 343.53461 292.784157 
L 345.703794 293.053484 
L 349.319101 293.188582 
L 357.272776 293.291997 
L 384.749107 293.416165 
L 398.487273 293.355628 
L 398.487273 293.355628 
" clip-path="url(#pa5245f59e0)" style="fill: none; stroke-dasharray: 5.55,2.4; stroke-dashoffset: 0; stroke: #2ca02c; stroke-width: 1.5"/>
   </g>
   <g id="patch_3">
    <path d="M 57.6 307.584 
L 57.6 41.472 
" style="fill: none; stroke: #000000; stroke-width: 0.8; stroke-linejoin: miter; stroke-linecap: square"/>
   </g>
   <g id="patch_4">
    <path d="M 414.72 307.584 
L 414.72 41.472 
" style="fill: none; stroke: #000000; stroke-width: 0.8; stroke-linejoin: miter; stroke-linecap: square"/>
   </g>
   <g id="patch_5">
    <path d="M 57.6 307.584 
L 414.72 307.584 
" style="fill: none; stroke: #000000; stroke-width: 0.8; stroke-linejoin: miter; stroke-linecap: square"/>
   </g>
   <g id="patch_6">
    <path d="M 57.6 41.472 
L 414.72 41.472 
" style="fill: none; stroke: #000000; stroke-width: 0.8; stroke-linejoin: miter; stroke-linecap: square"/>
   </g>
   <g id="legend_1">
    <g id="patch_7">
     <path d="M 421.72 108.462625 
L 487.005938 108.462625 
Q 489.005938 108.462625 489.005938 106.462625 
L 489.005938 48.472 
Q 489.005938 46.472 487.005938 46.472 
L 421.72 46.472 
Q 419.72 46.472 419.72 48.472 
L 419.72 106.462625 
Q 419.72 108.462625 421.72 108.462625 
z
" style="fill: #ffffff; opacity: 0.8; stroke: #cccccc; stroke-linejoin: miter"/>
    </g>
    <g id="line2d_18">
     <path d="M 423.72 54.570438 
L 433.72 54.570438 
L 443.72 54.570438 
" style="fill: none; stroke: #000000; stroke-width: 1.5; stroke-linecap: square"/>
    </g>
    <g id="text_16">
     <!-- data -->
     <g transform="translate(451.72 58.070438) scale(0.1 -0.1)">
      <defs>
       <path id="DejaVuSans-61" d="M 2194 1759 
Q 1497 1759 1228 1600 
Q 959 1441 959 1056 
Q 959 750 1161 570 
Q 1363 391 1709 391 
Q 2188 391 2477 730 
Q 2766 1069 2766 1631 
L 2766 1759 
L 2194 1759 
z
M 3341 1997 
L 3341 0 
L 2766 0 
L 2766 531 
Q 2569 213 2275 61 
Q 1981 -91 1556 -91 
Q 1019 -91 701 211 
Q 384 513 384 1019 
Q 384 1609 779 1909 
Q 1175 2209 1959 2209 
L 2766 2209 
L 2766 2266 
Q 2766 2663 2505 2880 
Q 2244 3097 1772 3097 
Q 1472 3097 1187 3025 
Q 903 2953 641 2809 
L 641 3341 
Q 956 3463 1253 3523 
Q 1550 3584 1831 3584 
Q 2591 3584 2966 3190 
Q 3341 2797 3341 1997 
z
" transform="scale(0.015625)"/>
      </defs>
      <use xlink:href="#DejaVuSans-64"/>
      <use xlink:href="#DejaVuSans-61" transform="translate(63.476562 0)"/>
      <use xlink:href="#DejaVuSans-74" transform="translate(124.755859 0)"/>
      <use xlink:href="#DejaVuSans-61" transform="translate(163.964844 0)"/>
     </g>
    </g>
    <g id="line2d_19">
     <path d="M 423.72 69.248563 
L 433.72 69.248563 
L 443.72 69.248563 
" style="fill: none; stroke: #1f77b4; stroke-width: 1.5; stroke-linecap: square"/>
    </g>
    <g id="text_17">
     <!-- fit -->
     <g transform="translate(451.72 72.748563) scale(0.1 -0.1)">
      <defs>
       <path id="DejaVuSans-66" d="M 2375 4863 
L 2375 4384 
L 1825 4384 
Q 1516 4384 1395 4259 
Q 1275 4134 1275 3809 
L 1275 3500 
L 2222 3500 
L 2222 3053 
L 1275 3053 
L 1275 0 
L 697 0 
L 697 3053 
L 147 3053 
L 147 3500 
L 697 3500 
L 697 3744 
Q 697 4328 969 4595 
Q 1241 4863 1831 4863 
L 2375 4863 
z
" transform="scale(0.015625)"/>
      </defs>
      <use xlink:href="#DejaVuSans-66"/>
      <use xlink:href="#DejaVuSans-69" transform="translate(35.205078 0)"/>
      <use xlink:href="#DejaVuSans-74" transform="translate(62.988281 0)"/>
     </g>
    </g>
    <g id="line2d_20">
     <path d="M 423.72 83.926688 
L 433.72 83.926688 
L 443.72 83.926688 
" style="fill: none; stroke-dasharray: 5.55,2.4; stroke-dashoffset: 0; stroke: #ff7f0e; stroke-width: 1.5"/>
    </g>
    <g id="text_18">
     <!-- shirley -->
     <g transform="translate(451.72 87.426688) scale(0.1 -0.1)">
      <defs>
       <path id="DejaVuSans-68" d="M 3513 2113 
L 3513 0 
L 2938 0 
L 2938 2094 
Q 2938 2591 2744 2837 
Q 2550 3084 2163 3084 
Q 1697 3084 1428 2787 
Q 1159 2491 1159 1978 
L 1159 0 
L 581 0 
L 581 4863 
L 1159 4863 
L 1159 2956 
Q 1366 3272 1645 3428 
Q 1925 3584 2291 3584 
Q 2894 3584 3203 3211 
Q 3513 2838 3513 2113 
z
" transform="scale(0.015625)"/>
       <path id="DejaVuSans-6c" d="M 603 4863 
L 1178 4863 
L 1178 0 
L 603 0 
L 603 4863 
z
" transform="scale(0.015625)"/>
      </defs>
      <use xlink:href="#DejaVuSans-73"/>
      <use xlink:href="#DejaVuSans-68" transform="translate(52.099609 0)"/>
      <use xlink:href="#DejaVuSans-69" transform="translate(115.478516 0)"/>
      <use xlink:href="#DejaVuSans-72" transform="translate(143.261719 0)"/>
      <use xlink:href="#DejaVuSans-6c" transform="translate(184.375 0)"/>
      <use xlink:href="#DejaVuSans-65" transform="translate(212.158203 0)"/>
      <use xlink:href="#DejaVuSans-79" transform="translate(273.681641 0)"/>
     </g>
    </g>
    <g id="line2d_21">
     <path d="M 423.72 98.604813 
L 433.72 98.604813 
L 443.72 98.604813 
" style="fill: none; stroke-dasharray: 5.55,2.4; stroke-dashoffset: 0; stroke: #2ca02c; stroke-width: 1.5"/>
    </g>
    <g id="text_19">
     <!-- C_1s -->
     <g transform="translate(451.72 102.104813) scale(0.1 -0.1)">
      <defs>
       <path id="DejaVuSans-5f" d="M 3263 -1063 
L 3263 -1509 
L -63 -1509 
L -63 -1063 
L 3263 -1063 
z
" transform="scale(0.015625)"/>
      </defs>
      <use xlink:href="#DejaVuSans-43"/>
      <use xlink:href="#DejaVuSans-5f" transform="translate(69.824219 0)"/>
      <use xlink:href="#DejaVuSans-31" transform="translate(119.824219 0)"/>
      <use xlink:href="#DejaVuSans-73" transform="translate(183.447266 0)"/>
     </g>
    </g>
   </g>
  </g>
 </g>
 <defs>
  <clipPath id="pa5245f59e0">
   <rect x="57.6" y="41.472" width="357.12" height="266.112"/>
  </clipPath>
 </defs>
</svg>
