<?xml version="1.0" encoding="utf-8" standalone="no"?>
<!DOCTYPE svg PUBLIC "-//W3C//DTD SVG 1.1//EN"
  "http://www.w3.org/Graphics/SVG/1.1/DTD/svg11.dtd">
<svg xmlns:xlink="http://www.w3.org/1999/xlink" width="460.8pt" height="345.6pt" viewBox="0 0 460.8 345.6" xmlns="http://www.w3.org/2000/svg" version="1.1">
 <metadata>
  <rdf:RDF xmlns:dc="http://purl.org/dc/elements/1.1/" xmlns:cc="http://creativecommons.org/ns#" xmlns:rdf="http://www.w3.org/1999/02/22-rdf-syntax-ns#">
   <cc:Work>
    <dc:type rdf:resource="http://purl.org/dc/dcmitype/StillImage"/>
    <dc:date>2026-08-07T16:02:19.974766</dc:date>
    <dc:format>image/svg+xml</dc:format>
    <dc:creator>
     <cc:Agent>
      <dc:title>Matplotlib v3.10.8, https://matplotlib.org/</dc:title>
     </cc:Agent>
    </dc:creator>
   </cc:Work>
  </rdf:RDF>
 </metadata>
 <defs>
  <style type="text/css">*{stroke-linejoin: round; stroke-linecap: butt}</style>
 </defs>
 <g id="figure_1">
  <g id="patch_1">
   <path d="M 0 345.6 
L 460.8 345.6 
L 460.8 0 
L 0 0 
z
" style="fill: #ffffff"/>
  </g>
  <g id="axes_1">
   <g id="patch_2">
    <path d="M 57.6 307.584 
L 414.72 307.584 
L 414.72 41.472 
L 57.6 41.472 
z
" style="fill: #ffffff"/>
   </g>
   <g id="matplotlib.axis_1">
    <g id="xtick_1">
     <g id="line2d_1">
      <defs>
       <path id="mb3fd3ec344" d="M 0 0 
L 0 3.5 
" style="stroke: #000000; stroke-width: 0.8"/>
      </defs>
      <g>
       <use xlink:href="#mb3fd3ec344" x="360.429682" y="307.584" style="stroke: #000000; stroke-width: 0.8"/>
      </g>
     </g>
     <g id="text_1">
      <!-- 220 -->
      <g transform="translate(350.885932 322.182437) scale(0.1 -0.1)">
       <defs>
        <path id="DejaVuSans-32" d="M 1228 531 
L 3431 531 
L 3431 0 
L 469 0 
L 469 531 
Q 828 903 1448 1529 
Q 2069 2156 2228 2338 
Q 2531 2678 2651 2914 
Q 2772 3150 2772 3378 
Q 2772 3750 2511 3984 
Q 2250 4219 1831 4219 
Q 1534 4219 1204 4116 
Q 875 4013 500 3803 
L 500 4441 
Q 881 4594 1212 4672 
Q 1544 4750 1819 4750 
Q 2544 4750 2975 4387 
Q 3406 4025 3406 3419 
Q 3406 3131 3298 2873 
Q 3191 2616 2906 2266 
Q 2828 2175 2409 1742 
Q 1991 1309 1228 531 
z
" transform="scale(0.015625)"/>
        <path id="DejaVuSans-30" d="M 2034 4250 
Q 1547 4250 1301 3770 
Q 1056 3291 1056 2328 
Q 1056 1369 1301 889 
Q 1547 409 2034 409 
Q 2525 409 2770 889 
Q 3016 1369 3016 2328 
Q 3016 3291 2770 3770 
Q 2525 4250 2034 4250 
z
M 2034 4750 
Q 2819 4750 3233 4129 
Q 3647 3509 3647 2328 
Q 3647 1150 3233 529 
Q 2819 -91 2034 -91 
Q 1250 -91 836 529 
Q 422 1150 422 2328 
Q 422 3509 836 4129 
Q 1250 4750 2034 4750 
z
" transform="scale(0.015625)"/>
       </defs>
       <use xlink:href="#DejaVuSans-32"/>
       <use xlink:href="#DejaVuSans-32" transform="translate(63.623047 0)"/>
       <use xlink:href="#DejaVuSans-30" transform="translate(127.246094 0)"/>
      </g>
     </g>
    </g>
    <g id="xtick_2">
     <g id="line2d_2">
      <g>
       <use xlink:href="#mb3fd3ec344" x="282.761131" y="307.584" style="stroke: #000000; stroke-width: 0.8"/>
      </g>
     </g>
     <g id="text_2">
      <!-- 230 -->
      <g transform="translate(273.217381 322.182437) scale(0.1 -0.1)">
       <defs>
        <path id="DejaVuSans-33" d="M 2597 2516 
Q 3050 2419 3304 2112 
Q 3559 1806 3559 1356 
Q 3559 666 3084 287 
Q 2609 -91 1734 -91 
Q 1441 -91 1130 -33 
Q 819 25 488 141 
L 488 750 
Q 750 597 1062 519 
Q 1375 441 1716 441 
Q 2309 441 2620 675 
Q 2931 909 2931 1356 
Q 2931 1769 2642 2001 
Q 2353 2234 1838 2234 
L 1294 2234 
L 1294 2753 
L 1863 2753 
Q 2328 2753 2575 2939 
Q 2822 3125 2822 3475 
Q 2822 3834 2567 4026 
Q 2313 4219 1838 4219 
Q 1578 4219 1281 4162 
Q 984 4106 628 3988 
L 628 4550 
Q 988 4650 1302 4700 
Q 1616 4750 1894 4750 
Q 2613 4750 3031 4423 
Q 3450 4097 3450 3541 
Q 3450 3153 3228 2886 
Q 3006 2619 2597 2516 
z
" transform="scale(0.015625)"/>
       </defs>
       <use xlink:href="#DejaVuSans-32"/>
       <use xlink:href="#DejaVuSans-33" transform="translate(63.623047 0)"/>
       <use xlink:href="#DejaVuSans-30" transform="translate(127.246094 0)"/>
      </g>
     </g>
    </g>
    <g id="xtick_3">
     <g id="line2d_3">
      <g>
       <use xlink:href="#mb3fd3ec344" x="205.092579" y="307.584" style="stroke: #000000; stroke-width: 0.8"/>
      </g>
     </g>
     <g id="text_3">
      <!-- 240 -->
      <g transform="translate(195.548829 322.182437) scale(0.1 -0.1)">
       <defs>
        <path id="DejaVuSans-34" d="M 2419 4116 
L 825 1625 
L 2419 1625 
L 2419 4116 
z
M 2253 4666 
L 3047 4666 
L 3047 1625 
L 3713 1625 
L 3713 1100 
L 3047 1100 
L 3047 0 
L 2419 0 
L 2419 1100 
L 313 1100 
L 313 1709 
L 2253 4666 
z
" transform="scale(0.015625)"/>
       </defs>
       <use xlink:href="#DejaVuSans-32"/>
       <use xlink:href="#DejaVuSans-34" transform="translate(63.623047 0)"/>
       <use xlink:href="#DejaVuSans-30" transform="translate(127.246094 0)"/>
      </g>
     </g>
    </g>
    <g id="xtick_4">
     <g id="line2d_4">
      <g>
       <use xlink:href="#mb3fd3ec344" x="127.424028" y="307.584" style="stroke: #000000; stroke-width: 0.8"/>
      </g>
     </g>
     <g id="text_4">
      <!-- 250 -->
      <g transform="translate(117.880278 322.182437) scale(0.1 -0.1)">
       <defs>
        <path id="DejaVuSans-35" d="M 691 4666 
L 3169 4666 
L 3169 4134 
L 1269 4134 
L 1269 2991 
Q 1406 3038 1543 3061 
Q 1681 3084 1819 3084 
Q 2600 3084 3056 2656 
Q 3513 2228 3513 1497 
Q 3513 744 3044 326 
Q 2575 -91 1722 -91 
Q 1428 -91 1123 -41 
Q 819 9 494 109 
L 494 744 
Q 775 591 1075 516 
Q 1375 441 1709 441 
Q 2250 441 2565 725 
Q 2881 1009 2881 1497 
Q 2881 1984 2565 2268 
Q 2250 2553 1709 2553 
Q 1456 2553 1204 2497 
Q 953 2441 691 2322 
L 691 4666 
z
" transform="scale(0.015625)"/>
       </defs>
       <use xlink:href="#DejaVuSans-32"/>
       <use xlink:href="#DejaVuSans-35" transform="translate(63.623047 0)"/>
       <use xlink:href="#DejaVuSans-30" transform="translate(127.246094 0)"/>
      </g>
     </g>
    </g>
    <g id="text_5">
     <!-- Binding Energy (eV) -->
     <g transform="translate(186.182656 335.860562) scale(0.1 -0.1)">
      <defs>
       <path id="DejaVuSans-42" d="M 1259 2228 
L 1259 519 
L 2272 519 
Q 2781 519 3026 730 
Q 3272 941 3272 1375 
Q 3272 1813 3026 2020 
Q 2781 2228 2272 2228 
L 1259 2228 
z
M 1259 4147 
L 1259 2741 
L 2194 2741 
Q 2656 2741 2882 2914 
Q 3109 3088 3109 3444 
Q 3109 3797 2882 3972 
Q 2656 4147 2194 4147 
L 1259 4147 
z
M 628 4666 
L 2241 4666 
Q 2963 4666 3353 4366 
Q 3744 4066 3744 3513 
Q 3744 3084 3544 2831 
Q 3344 2578 2956 2516 
Q 3422 2416 3680 2098 
Q 3938 1781 3938 1306 
Q 3938 681 3513 340 
Q 3088 0 2303 0 
L 628 0 
L 628 4666 
z
" transform="scale(0.015625)"/>
       <path id="DejaVuSans-69" d="M 603 3500 
L 1178 3500 
L 1178 0 
L 603 0 
L 603 3500 
z
M 603 4863 
L 1178 4863 
L 1178 4134 
L 603 4134 
L 603 4863 
z
" transform="scale(0.015625)"/>
       <path id="DejaVuSans-6e" d="M 3513 2113 
L 3513 0 
L 2938 0 
L 2938 2094 
Q 2938 2591 2744 2837 
Q 2550 3084 2163 3084 
Q 1697 3084 1428 2787 
Q 1159 2491 1159 1978 
L 1159 0 
L 581 0 
L 581 3500 
L 1159 3500 
L 1159 2956 
Q 1366 3272 1645 3428 
Q 1925 3584 2291 3584 
Q 2894 3584 3203 3211 
Q 3513 2838 3513 2113 
z
" transform="scale(0.015625)"/>
       <path id="DejaVuSans-64" d="M 2906 2969 
L 2906 4863 
L 3481 4863 
L 3481 0 
L 2906 0 
L 2906 525 
Q 2725 213 2448 61 
Q 2172 -91 1784 -91 
Q 1150 -91 751 415 
Q 353 922 353 1747 
Q 353 2572 751 3078 
Q 1150 3584 1784 3584 
Q 2172 3584 2448 3432 
Q 2725 3281 2906 2969 
z
M 947 1747 
Q 947 1113 1208 752 
Q 1469 391 1925 391 
Q 2381 391 2643 752 
Q 2906 1113 2906 1747 
Q 2906 2381 2643 2742 
Q 2381 3103 1925 3103 
Q 1469 3103 1208 2742 
Q 947 2381 947 1747 
z
" transform="scale(0.015625)"/>
       <path id="DejaVuSans-67" d="M 2906 1791 
Q 2906 2416 2648 2759 
Q 2391 3103 1925 3103 
Q 1463 3103 1205 2759 
Q 947 2416 947 1791 
Q 947 1169 1205 825 
Q 1463 481 1925 481 
Q 2391 481 2648 825 
Q 2906 1169 2906 1791 
z
M 3481 434 
Q 3481 -459 3084 -895 
Q 2688 -1331 1869 -1331 
Q 1566 -1331 1297 -1286 
Q 1028 -1241 775 -1147 
L 775 -588 
Q 1028 -725 1275 -790 
Q 1522 -856 1778 -856 
Q 2344 -856 2625 -561 
Q 2906 -266 2906 331 
L 2906 616 
Q 2728 306 2450 153 
Q 2172 0 1784 0 
Q 1141 0 747 490 
Q 353 981 353 1791 
Q 353 2603 747 3093 
Q 1141 3584 1784 3584 
Q 2172 3584 2450 3431 
Q 2728 3278 2906 2969 
L 2906 3500 
L 3481 3500 
L 3481 434 
z
" transform="scale(0.015625)"/>
       <path id="DejaVuSans-20" transform="scale(0.015625)"/>
       <path id="DejaVuSans-45" d="M 628 4666 
L 3578 4666 
L 3578 4134 
L 1259 4134 
L 1259 2753 
L 3481 2753 
L 3481 2222 
L 1259 2222 
L 1259 531 
L 3634 531 
L 3634 0 
L 628 0 
L 628 4666 
z
" transform="scale(0.015625)"/>
       <path id="DejaVuSans-65" d="M 3597 1894 
L 3597 1613 
L 953 1613 
Q 991 1019 1311 708 
Q 1631 397 2203 397 
Q 2534 397 2845 478 
Q 3156 559 3463 722 
L 3463 178 
Q 3153 47 2828 -22 
Q 2503 -91 2169 -91 
Q 1331 -91 842 396 
Q 353 884 353 1716 
Q 353 2575 817 3079 
Q 1281 3584 2069 3584 
Q 2775 3584 3186 3129 
Q 3597 2675 3597 1894 
z
M 3022 2063 
Q 3016 2534 2758 2815 
Q 2500 3097 2075 3097 
Q 1594 3097 1305 2825 
Q 1016 2553 972 2059 
L 3022 2063 
z
" transform="scale(0.015625)"/>
       <path id="DejaVuSans-72" d="M 2631 2963 
Q 2534 3019 2420 3045 
Q 2306 3072 2169 3072 
Q 1681 3072 1420 2755 
Q 1159 2438 1159 1844 
L 1159 0 
L 581 0 
L 581 3500 
L 1159 3500 
L 1159 2956 
Q 1341 3275 1631 3429 
Q 1922 3584 2338 3584 
Q 2397 3584 2469 3576 
Q 2541 3569 2628 3553 
L 2631 2963 
z
" transform="scale(0.015625)"/>
       <path id="DejaVuSans-79" d="M 2059 -325 
Q 1816 -950 1584 -1140 
Q 1353 -1331 966 -1331 
L 506 -1331 
L 506 -850 
L 844 -850 
Q 1081 -850 1212 -737 
Q 1344 -625 1503 -206 
L 1606 56 
L 191 3500 
L 800 3500 
L 1894 763 
L 2988 3500 
L 3597 3500 
L 2059 -325 
z
" transform="scale(0.015625)"/>
       <path id="DejaVuSans-28" d="M 1984 4856 
Q 1566 4138 1362 3434 
Q 1159 2731 1159 2009 
Q 1159 1288 1364 580 
Q 1569 -128 1984 -844 
L 1484 -844 
Q 1016 -109 783 600 
Q 550 1309 550 2009 
Q 550 2706 781 3412 
Q 1013 4119 1484 4856 
L 1984 4856 
z
" transform="scale(0.015625)"/>
       <path id="DejaVuSans-56" d="M 1831 0 
L 50 4666 
L 709 4666 
L 2188 738 
L 3669 4666 
L 4325 4666 
L 2547 0 
L 1831 0 
z
" transform="scale(0.015625)"/>
       <path id="DejaVuSans-29" d="M 513 4856 
L 1013 4856 
Q 1481 4119 1714 3412 
Q 1947 2706 1947 2009 
Q 1947 1309 1714 600 
Q 1481 -109 1013 -844 
L 513 -844 
Q 928 -128 1133 580 
Q 1338 1288 1338 2009 
Q 1338 2731 1133 3434 
Q 928 4138 513 4856 
z
" transform="scale(0.015625)"/>
      </defs>
      <use xlink:href="#DejaVuSans-42"/>
      <use xlink:href="#DejaVuSans-69" transform="translate(68.603516 0)"/>
      <use xlink:href="#DejaVuSans-6e" transform="translate(96.386719 0)"/>
      <use xlink:href="#DejaVuSans-64" transform="translate(159.765625 0)"/>
      <use xlink:href="#DejaVuSans-69" transform="translate(223.242188 0)"/>
      <use xlink:href="#DejaVuSans-6e" transform="translate(251.025391 0)"/>
      <use xlink:href="#DejaVuSans-67" transform="translate(314.404297 0)"/>
      <use xlink:href="#DejaVuSans-20" transform="translate(377.880859 0)"/>
      <use xlink:href="#DejaVuSans-45" transform="translate(409.667969 0)"/>
      <use xlink:href="#DejaVuSans-6e" transform="translate(472.851562 0)"/>
      <use xlink:href="#DejaVuSans-65" transform="translate(536.230469 0)"/>
      <use xlink:href="#DejaVuSans-72" transform="translate(597.753906 0)"/>
      <use xlink:href="#DejaVuSans-67" transform="translate(637.117188 0)"/>
      <use xlink:href="#DejaVuSans-79" transform="translate(700.59375 0)"/>
      <use xlink:href="#DejaVuSans-20" transform="translate(759.773438 0)"/>
      <use xlink:href="#DejaVuSans-28" transform="translate(791.560547 0)"/>
      <use xlink:href="#DejaVuSans-65" transform="translate(830.574219 0)"/>
      <use xlink:href="#DejaVuSans-56" transform="translate(892.097656 0)"/>
      <use xlink:href="#DejaVuSans-29" transform="translate(960.505859 0)"/>
     </g>
    </g>
   </g>
   <g id="matplotlib.axis_2">
    <g id="ytick_1">
     <g id="line2d_5">
      <defs>
       <path id="m0442bce3a9" d="M 0 0 
L -3.5 0 
" style="stroke: #000000; stroke-width: 0.8"/>
      </defs>
      <g>
       <use xlink:href="#m0442bce3a9" x="57.6" y="283.005102" style="stroke: #000000; stroke-width: 0.8"/>
      </g>
     </g>
     <g id="text_6">
      <!-- 260 -->
      <g transform="translate(31.5125 286.804321) scale(0.1 -0.1)">
       <defs>
        <path id="DejaVuSans-36" d="M 2113 2584 
Q 1688 2584 1439 2293 
Q 1191 2003 1191 1497 
Q 1191 994 1439 701 
Q 1688 409 2113 409 
Q 2538 409 2786 701 
Q 3034 994 3034 1497 
Q 3034 2003 2786 2293 
Q 2538 2584 2113 2584 
z
M 3366 4563 
L 3366 3988 
Q 3128 4100 2886 4159 
Q 2644 4219 2406 4219 
Q 1781 4219 1451 3797 
Q 1122 3375 1075 2522 
Q 1259 2794 1537 2939 
Q 1816 3084 2150 3084 
Q 2853 3084 3261 2657 
Q 3669 2231 3669 1497 
Q 3669 778 3244 343 
Q 2819 -91 2113 -91 
Q 1303 -91 875 529 
Q 447 1150 447 2328 
Q 447 3434 972 4092 
Q 1497 4750 2381 4750 
Q 2619 4750 2861 4703 
Q 3103 4656 3366 4563 
z
" transform="scale(0.015625)"/>
       </defs>
       <use xlink:href="#DejaVuSans-32"/>
       <use xlink:href="#DejaVuSans-36" transform="translate(63.623047 0)"/>
       <use xlink:href="#DejaVuSans-30" transform="translate(127.246094 0)"/>
      </g>
     </g>
    </g>
    <g id="ytick_2">
     <g id="line2d_6">
      <g>
       <use xlink:href="#m0442bce3a9" x="57.6" y="248.485104" style="stroke: #000000; stroke-width: 0.8"/>
      </g>
     </g>
     <g id="text_7">
      <!-- 280 -->
      <g transform="translate(31.5125 252.284322) scale(0.1 -0.1)">
       <defs>
        <path id="DejaVuSans-38" d="M 2034 2216 
Q 1584 2216 1326 1975 
Q 1069 1734 1069 1313 
Q 1069 891 1326 650 
Q 1584 409 2034 409 
Q 2484 409 2743 651 
Q 3003 894 3003 1313 
Q 3003 1734 2745 1975 
Q 2488 2216 2034 2216 
z
M 1403 2484 
Q 997 2584 770 2862 
Q 544 3141 544 3541 
Q 544 4100 942 4425 
Q 1341 4750 2034 4750 
Q 2731 4750 3128 4425 
Q 3525 4100 3525 3541 
Q 3525 3141 3298 2862 
Q 3072 2584 2669 2484 
Q 3125 2378 3379 2068 
Q 3634 1759 3634 1313 
Q 3634 634 3220 271 
Q 2806 -91 2034 -91 
Q 1263 -91 848 271 
Q 434 634 434 1313 
Q 434 1759 690 2068 
Q 947 2378 1403 2484 
z
M 1172 3481 
Q 1172 3119 1398 2916 
Q 1625 2713 2034 2713 
Q 2441 2713 2670 2916 
Q 2900 3119 2900 3481 
Q 2900 3844 2670 4047 
Q 2441 4250 2034 4250 
Q 1625 4250 1398 4047 
Q 1172 3844 1172 3481 
z
" transform="scale(0.015625)"/>
       </defs>
       <use xlink:href="#DejaVuSans-32"/>
       <use xlink:href="#DejaVuSans-38" transform="translate(63.623047 0)"/>
       <use xlink:href="#DejaVuSans-30" transform="translate(127.246094 0)"/>
      </g>
     </g>
    </g>
    <g id="ytick_3">
     <g id="line2d_7">
      <g>
       <use xlink:href="#m0442bce3a9" x="57.6" y="213.965105" style="stroke: #000000; stroke-width: 0.8"/>
      </g>
     </g>
     <g id="text_8">
      <!-- 300 -->
      <g transform="translate(31.5125 217.764324) scale(0.1 -0.1)">
       <use xlink:href="#DejaVuSans-33"/>
       <use xlink:href="#DejaVuSans-30" transform="translate(63.623047 0)"/>
       <use xlink:href="#DejaVuSans-30" transform="translate(127.246094 0)"/>
      </g>
     </g>
    </g>
    <g id="ytick_4">
     <g id="line2d_8">
      <g>
       <use xlink:href="#m0442bce3a9" x="57.6" y="179.445106" style="stroke: #000000; stroke-width: 0.8"/>
      </g>
     </g>
     <g id="text_9">
      <!-- 320 -->
      <g transform="translate(31.5125 183.244325) scale(0.1 -0.1)">
       <use xlink:href="#DejaVuSans-33"/>
       <use xlink:href="#DejaVuSans-32" transform="translate(63.623047 0)"/>
       <use xlink:href="#DejaVuSans-30" transform="translate(127.246094 0)"/>
      </g>
     </g>
    </g>
    <g id="ytick_5">
     <g id="line2d_9">
      <g>
       <use xlink:href="#m0442bce3a9" x="57.6" y="144.925108" style="stroke: #000000; stroke-width: 0.8"/>
      </g>
     </g>
     <g id="text_10">
      <!-- 340 -->
      <g transform="translate(31.5125 148.724326) scale(0.1 -0.1)">
       <use xlink:href="#DejaVuSans-33"/>
       <use xlink:href="#DejaVuSans-34" transform="translate(63.623047 0)"/>
       <use xlink:href="#DejaVuSans-30" transform="translate(127.246094 0)"/>
      </g>
     </g>
    </g>
    <g id="ytick_6">
     <g id="line2d_10">
      <g>
       <use xlink:href="#m0442bce3a9" x="57.6" y="110.405109" style="stroke: #000000; stroke-width: 0.8"/>
      </g>
     </g>
     <g id="text_11">
      <!-- 360 -->
      <g transform="translate(31.5125 114.204328) scale(0.1 -0.1)">
       <use xlink:href="#DejaVuSans-33"/>
       <use xlink:href="#DejaVuSans-36" transform="translate(63.623047 0)"/>
       <use xlink:href="#DejaVuSans-30" transform="translate(127.246094 0)"/>
      </g>
     </g>
    </g>
    <g id="ytick_7">
     <g id="line2d_11">
      <g>
       <use xlink:href="#m0442bce3a9" x="57.6" y="75.88511" style="stroke: #000000; stroke-width: 0.8"/>
      </g>
     </g>
     <g id="text_12">
      <!-- 380 -->
      <g transform="translate(31.5125 79.684329) scale(0.1 -0.1)">
       <use xlink:href="#DejaVuSans-33"/>
       <use xlink:href="#DejaVuSans-38" transform="translate(63.623047 0)"/>
       <use xlink:href="#DejaVuSans-30" transform="translate(127.246094 0)"/>
      </g>
     </g>
    </g>
    <g id="text_13">
     <!-- Counts per Second -->
     <g transform="translate(25.432812 221.867844) rotate(-90) scale(0.1 -0.1)">
      <defs>
       <path id="DejaVuSans-43" d="M 4122 4306 
L 4122 3641 
Q 3803 3938 3442 4084 
Q 3081 4231 2675 4231 
Q 1875 4231 1450 3742 
Q 1025 3253 1025 2328 
Q 1025 1406 1450 917 
Q 1875 428 2675 428 
Q 3081 428 3442 575 
Q 3803 722 4122 1019 
L 4122 359 
Q 3791 134 3420 21 
Q 3050 -91 2638 -91 
Q 1578 -91 968 557 
Q 359 1206 359 2328 
Q 359 3453 968 4101 
Q 1578 4750 2638 4750 
Q 3056 4750 3426 4639 
Q 3797 4528 4122 4306 
z
" transform="scale(0.015625)"/>
       <path id="DejaVuSans-6f" d="M 1959 3097 
Q 1497 3097 1228 2736 
Q 959 2375 959 1747 
Q 959 1119 1226 758 
Q 1494 397 1959 397 
Q 2419 397 2687 759 
Q 2956 1122 2956 1747 
Q 2956 2369 2687 2733 
Q 2419 3097 1959 3097 
z
M 1959 3584 
Q 2709 3584 3137 3096 
Q 3566 2609 3566 1747 
Q 3566 888 3137 398 
Q 2709 -91 1959 -91 
Q 1206 -91 779 398 
Q 353 888 353 1747 
Q 353 2609 779 3096 
Q 1206 3584 1959 3584 
z
" transform="scale(0.015625)"/>
       <path id="DejaVuSans-75" d="M 544 1381 
L 544 3500 
L 1119 3500 
L 1119 1403 
Q 1119 906 1312 657 
Q 1506 409 1894 409 
Q 2359 409 2629 706 
Q 2900 1003 2900 1516 
L 2900 3500 
L 3475 3500 
L 3475 0 
L 2900 0 
L 2900 538 
Q 2691 219 2414 64 
Q 2138 -91 1772 -91 
Q 1169 -91 856 284 
Q 544 659 544 1381 
z
M 1991 3584 
L 1991 3584 
z
" transform="scale(0.015625)"/>
       <path id="DejaVuSans-74" d="M 1172 4494 
L 1172 3500 
L 2356 3500 
L 2356 3053 
L 1172 3053 
L 1172 1153 
Q 1172 725 1289 603 
Q 1406 481 1766 481 
L 2356 481 
L 2356 0 
L 1766 0 
Q 1100 0 847 248 
Q 594 497 594 1153 
L 594 3053 
L 172 3053 
L 172 3500 
L 594 3500 
L 594 4494 
L 1172 4494 
z
" transform="scale(0.015625)"/>
       <path id="DejaVuSans-73" d="M 2834 3397 
L 2834 2853 
Q 2591 2978 2328 3040 
Q 2066 3103 1784 3103 
Q 1356 3103 1142 2972 
Q 928 2841 928 2578 
Q 928 2378 1081 2264 
Q 1234 2150 1697 2047 
L 1894 2003 
Q 2506 1872 2764 1633 
Q 3022 1394 3022 966 
Q 3022 478 2636 193 
Q 2250 -91 1575 -91 
Q 1294 -91 989 -36 
Q 684 19 347 128 
L 347 722 
Q 666 556 975 473 
Q 1284 391 1588 391 
Q 1994 391 2212 530 
Q 2431 669 2431 922 
Q 2431 1156 2273 1281 
Q 2116 1406 1581 1522 
L 1381 1569 
Q 847 1681 609 1914 
Q 372 2147 372 2553 
Q 372 3047 722 3315 
Q 1072 3584 1716 3584 
Q 2034 3584 2315 3537 
Q 2597 3491 2834 3397 
z
" transform="scale(0.015625)"/>
       <path id="DejaVuSans-70" d="M 1159 525 
L 1159 -1331 
L 581 -1331 
L 581 3500 
L 1159 3500 
L 1159 2969 
Q 1341 3281 1617 3432 
Q 1894 3584 2278 3584 
Q 2916 3584 3314 3078 
Q 3713 2572 3713 1747 
Q 3713 922 3314 415 
Q 2916 -91 2278 -91 
Q 1894 -91 1617 61 
Q 1341 213 1159 525 
z
M 3116 1747 
Q 3116 2381 2855 2742 
Q 2594 3103 2138 3103 
Q 1681 3103 1420 2742 
Q 1159 2381 1159 1747 
Q 1159 1113 1420 752 
Q 1681 391 2138 391 
Q 2594 391 2855 752 
Q 3116 1113 3116 1747 
z
" transform="scale(0.015625)"/>
       <path id="DejaVuSans-53" d="M 3425 4513 
L 3425 3897 
Q 3066 4069 2747 4153 
Q 2428 4238 2131 4238 
Q 1616 4238 1336 4038 
Q 1056 3838 1056 3469 
Q 1056 3159 1242 3001 
Q 1428 2844 1947 2747 
L 2328 2669 
Q 3034 2534 3370 2195 
Q 3706 1856 3706 1288 
Q 3706 609 3251 259 
Q 2797 -91 1919 -91 
Q 1588 -91 1214 -16 
Q 841 59 441 206 
L 441 856 
Q 825 641 1194 531 
Q 1563 422 1919 422 
Q 2459 422 2753 634 
Q 3047 847 3047 1241 
Q 3047 1584 2836 1778 
Q 2625 1972 2144 2069 
L 1759 2144 
Q 1053 2284 737 2584 
Q 422 2884 422 3419 
Q 422 4038 858 4394 
Q 1294 4750 2059 4750 
Q 2388 4750 2728 4690 
Q 3069 4631 3425 4513 
z
" transform="scale(0.015625)"/>
       <path id="DejaVuSans-63" d="M 3122 3366 
L 3122 2828 
Q 2878 2963 2633 3030 
Q 2388 3097 2138 3097 
Q 1578 3097 1268 2742 
Q 959 2388 959 1747 
Q 959 1106 1268 751 
Q 1578 397 2138 397 
Q 2388 397 2633 464 
Q 2878 531 3122 666 
L 3122 134 
Q 2881 22 2623 -34 
Q 2366 -91 2075 -91 
Q 1284 -91 818 406 
Q 353 903 353 1747 
Q 353 2603 823 3093 
Q 1294 3584 2113 3584 
Q 2378 3584 2631 3529 
Q 2884 3475 3122 3366 
z
" transform="scale(0.015625)"/>
      </defs>
      <use xlink:href="#DejaVuSans-43"/>
      <use xlink:href="#DejaVuSans-6f" transform="translate(69.824219 0)"/>
      <use xlink:href="#DejaVuSans-75" transform="translate(131.005859 0)"/>
      <use xlink:href="#DejaVuSans-6e" transform="translate(194.384766 0)"/>
      <use xlink:href="#DejaVuSans-74" transform="translate(257.763672 0)"/>
      <use xlink:href="#DejaVuSans-73" transform="translate(296.972656 0)"/>
      <use xlink:href="#DejaVuSans-20" transform="translate(349.072266 0)"/>
      <use xlink:href="#DejaVuSans-70" transform="translate(380.859375 0)"/>
      <use xlink:href="#DejaVuSans-65" transform="translate(444.335938 0)"/>
      <use xlink:href="#DejaVuSans-72" transform="translate(505.859375 0)"/>
      <use xlink:href="#DejaVuSans-20" transform="translate(546.972656 0)"/>
      <use xlink:href="#DejaVuSans-53" transform="translate(578.759766 0)"/>
      <use xlink:href="#DejaVuSans-65" transform="translate(642.236328 0)"/>
      <use xlink:href="#DejaVuSans-63" transform="translate(703.759766 0)"/>
      <use xlink:href="#DejaVuSans-6f" transform="translate(758.740234 0)"/>
      <use xlink:href="#DejaVuSans-6e" transform="translate(819.921875 0)"/>
      <use xlink:href="#DejaVuSans-64" transform="translate(883.300781 0)"/>
     </g>
    </g>
   </g>
   <g id="line2d_12">
    <path d="M 73.832727 235.875345 
L 75.386098 236.160929 
L 76.939469 203.644022 
L 78.49284 165.881526 
L 81.599582 224.82722 
L 83.152953 191.846813 
L 84.706324 183.774484 
L 86.259696 213.318442 
L 87.813067 205.1924 
L 89.366438 229.377508 
L 90.919809 235.095504 
L 92.47318 220.176012 
L 94.026551 191.469699 
L 95.579922 194.884659 
L 97.133293 214.103064 
L 98.686664 226.111622 
L 100.240035 195.946563 
L 101.793406 173.624879 
L 103.346777 161.760787 
L 104.900148 201.082828 
L 106.453519 198.626368 
L 108.00689 188.096146 
L 109.560261 209.646239 
L 111.113632 228.300259 
L 112.667003 191.137703 
L 114.220374 184.093276 
L 115.773745 250.836036 
L 117.327116 211.200519 
L 118.880487 265.886031 
L 120.433858 213.280073 
L 121.987229 195.063559 
L 123.5406 214.437736 
L 125.093971 223.581704 
L 126.647342 200.119755 
L 128.200713 226.316827 
L 129.754084 209.407205 
L 131.307455 219.580128 
L 132.860826 211.752597 
L 134.414197 226.617668 
L 135.967569 243.28458 
L 137.52094 200.372217 
L 139.074311 212.919356 
L 140.627682 236.262383 
L 142.181053 212.635878 
L 143.734424 237.557677 
L 145.287795 209.876539 
L 146.841166 275.521201 
L 148.394537 187.896223 
L 149.947908 217.32447 
L 151.501279 220.577014 
L 153.05465 236.038435 
L 154.608021 253.22898 
L 156.161392 176.774398 
L 157.714763 220.986991 
L 159.268134 260.828333 
L 160.821505 227.775504 
L 162.374876 228.033592 
L 163.928247 221.884424 
L 165.481618 217.096915 
L 167.034989 251.78601 
L 168.58836 213.165363 
L 170.141731 234.116189 
L 171.695102 261.734104 
L 173.248473 228.271228 
L 174.801844 221.82398 
L 176.355215 217.547815 
L 177.908586 206.519538 
L 179.461957 188.461488 
L 181.015328 237.778761 
L 182.568699 169.693569 
L 184.12207 169.076921 
L 185.675441 183.651731 
L 187.228813 187.184231 
L 188.782184 197.041072 
L 190.335555 174.595012 
L 191.888926 124.453471 
L 193.442297 132.617623 
L 194.995668 135.720143 
L 196.549039 141.42352 
L 198.10241 141.249763 
L 199.655781 158.991869 
L 201.209152 128.790029 
L 202.762523 146.721615 
L 204.315894 154.322193 
L 205.869265 98.305694 
L 207.422636 127.823555 
L 208.976007 151.813677 
L 210.529378 130.952396 
L 212.082749 123.755667 
L 213.63612 123.187364 
L 215.189491 139.447405 
L 216.742862 71.29055 
L 218.296233 103.486593 
L 219.849604 90.465512 
L 221.402975 53.568 
L 222.956346 101.650854 
L 224.509717 91.448055 
L 226.063088 63.912349 
L 227.616459 109.802183 
L 230.723201 169.687614 
L 232.276572 147.063225 
L 233.829943 184.898075 
L 235.383314 170.48639 
L 236.936686 174.204815 
L 238.490057 242.943488 
L 240.043428 197.457107 
L 241.596799 224.811444 
L 243.15017 197.097443 
L 244.703541 259.51433 
L 246.256912 210.86583 
L 247.810283 235.870253 
L 249.363654 215.980572 
L 250.917025 249.028052 
L 252.470396 267.352026 
L 254.023767 209.225026 
L 255.577138 213.645778 
L 257.130509 239.551656 
L 258.68388 248.424901 
L 260.237251 259.023265 
L 261.790622 283.138332 
L 263.343993 232.453291 
L 264.897364 261.37192 
L 266.450735 245.566766 
L 268.004106 237.142781 
L 269.557477 244.642976 
L 271.110848 234.307188 
L 272.664219 218.054914 
L 274.21759 208.167868 
L 275.770961 257.867622 
L 277.324332 208.825923 
L 278.877703 271.167832 
L 280.431074 281.709929 
L 281.984445 245.409613 
L 283.537816 225.268523 
L 285.091187 226.867904 
L 286.644559 235.132268 
L 288.19793 246.578927 
L 291.304672 207.208074 
L 292.858043 200.020872 
L 294.411414 259.450813 
L 295.964785 238.186942 
L 297.518156 251.773065 
L 299.071527 272.28666 
L 300.624898 262.621768 
L 302.178269 264.742159 
L 303.73164 224.289381 
L 305.285011 275.100351 
L 306.838382 258.4609 
L 308.391753 208.773642 
L 309.945124 270.325786 
L 311.498495 237.27306 
L 313.051866 247.941621 
L 314.605237 241.237026 
L 316.158608 265.419942 
L 317.711979 242.682568 
L 319.26535 253.439794 
L 320.818721 202.128802 
L 322.372092 239.171901 
L 323.925463 251.934014 
L 325.478834 256.295771 
L 327.032205 280.642398 
L 328.585576 295.488 
L 330.138947 253.309705 
L 331.692318 248.258048 
L 333.245689 260.914374 
L 334.79906 265.806721 
L 336.352431 222.043527 
L 337.905803 230.769423 
L 339.459174 253.224751 
L 341.012545 249.757494 
L 342.565916 245.32195 
L 344.119287 270.603655 
L 345.672658 270.808117 
L 347.226029 262.405518 
L 348.7794 265.705906 
L 350.332771 237.429194 
L 351.886142 274.120224 
L 353.439513 234.22988 
L 354.992884 236.009956 
L 356.546255 269.919555 
L 358.099626 268.861396 
L 361.206368 242.806236 
L 362.759739 233.024477 
L 364.31311 268.089322 
L 365.866481 261.787592 
L 367.419852 251.837617 
L 368.973223 243.877944 
L 370.526594 261.075358 
L 372.079965 272.268451 
L 373.633336 262.652974 
L 375.186707 242.476156 
L 376.740078 235.524242 
L 378.293449 262.066013 
L 379.84682 264.11084 
L 381.400191 264.650215 
L 382.953562 253.544148 
L 384.506933 292.267508 
L 386.060304 258.401025 
L 387.613676 262.407451 
L 389.167047 261.187807 
L 390.720418 272.960594 
L 392.273789 278.584575 
L 393.82716 235.148734 
L 395.380531 261.385158 
L 396.933902 261.014879 
L 398.487273 281.521605 
L 398.487273 281.521605 
" clip-path="url(#p03eb475f51)" style="fill: none; stroke: #000000; stroke-width: 1.5; stroke-linecap: square"/>
   </g>
   <g id="line2d_13">
    <path d="M 73.832727 218.77873 
L 75.386098 218.640621 
L 76.939469 218.747788 
L 78.49284 219.143375 
L 80.046211 219.317948 
L 81.599582 219.257432 
L 86.259696 219.734081 
L 87.813067 219.824422 
L 92.47318 219.555495 
L 95.579922 219.911606 
L 100.240035 220.004015 
L 103.346777 220.74789 
L 106.453519 220.996963 
L 108.00689 221.210932 
L 109.560261 221.25784 
L 111.113632 221.158765 
L 114.220374 221.582229 
L 115.773745 221.303808 
L 117.327116 221.326882 
L 118.880487 220.924443 
L 120.433858 220.922416 
L 121.987229 221.057569 
L 129.754084 220.909427 
L 134.414197 220.64504 
L 135.967569 220.355909 
L 139.074311 220.314174 
L 140.627682 220.049291 
L 142.181053 219.953948 
L 143.734424 219.652957 
L 145.287795 219.550032 
L 146.841166 218.923805 
L 148.394537 218.953298 
L 151.501279 218.47157 
L 153.05465 218.061184 
L 154.608021 217.487803 
L 156.161392 217.470285 
L 157.714763 217.075699 
L 159.268134 216.330123 
L 162.374876 215.187355 
L 165.481618 213.907643 
L 167.034989 212.889906 
L 168.58836 212.062763 
L 170.141731 210.948043 
L 174.801844 206.487545 
L 176.355215 204.674603 
L 177.908586 202.614195 
L 179.461957 200.280796 
L 182.568699 193.703751 
L 184.12207 189.559097 
L 185.675441 184.316104 
L 187.228813 177.865665 
L 188.782184 169.998888 
L 190.335555 160.918632 
L 191.888926 151.023856 
L 194.995668 130.039227 
L 196.549039 121.16842 
L 198.10241 115.105132 
L 199.655781 112.579056 
L 201.209152 114.082219 
L 202.762523 118.539038 
L 204.315894 124.721411 
L 205.869265 131.610846 
L 207.422636 137.200279 
L 208.976007 140.534252 
L 210.529378 141.333407 
L 212.082749 139.178845 
L 213.63612 133.976863 
L 215.189491 125.871677 
L 216.742862 116.229338 
L 218.296233 105.552022 
L 219.849604 95.998305 
L 221.402975 89.817189 
L 222.956346 88.137129 
L 224.509717 92.328729 
L 226.063088 102.265948 
L 227.616459 116.064024 
L 232.276572 163.606832 
L 233.829943 177.118289 
L 235.383314 188.808307 
L 236.936686 198.597636 
L 238.490057 206.206818 
L 240.043428 212.786664 
L 241.596799 218.03596 
L 243.15017 222.600935 
L 246.256912 229.130861 
L 247.810283 231.637152 
L 249.363654 233.916907 
L 250.917025 235.628047 
L 252.470396 236.93313 
L 254.023767 238.460333 
L 255.577138 239.757943 
L 257.130509 240.680056 
L 258.68388 241.370274 
L 260.237251 241.822085 
L 261.790622 241.932748 
L 263.343993 242.277994 
L 266.450735 242.179961 
L 268.004106 242.046133 
L 271.110848 241.517654 
L 272.664219 241.451234 
L 274.21759 241.591855 
L 275.770961 241.533311 
L 277.324332 242.040705 
L 280.431074 242.342426 
L 283.537816 243.114278 
L 285.091187 243.336713 
L 286.644559 243.319377 
L 289.751301 242.831179 
L 292.858043 242.583204 
L 294.411414 242.061651 
L 297.518156 241.672759 
L 299.071527 241.639919 
L 300.624898 241.980673 
L 302.178269 242.568006 
L 303.73164 243.63613 
L 306.838382 245.149232 
L 308.391753 246.194631 
L 309.945124 246.630483 
L 314.605237 248.305538 
L 316.158608 248.804856 
L 319.26535 250.355171 
L 320.818721 251.550564 
L 322.372092 252.439424 
L 325.478834 253.787635 
L 327.032205 254.132691 
L 328.585576 254.282907 
L 331.692318 255.074419 
L 334.79906 255.478696 
L 337.905803 256.321533 
L 342.565916 256.885075 
L 348.7794 256.841401 
L 350.332771 257.032066 
L 351.886142 256.937545 
L 354.992884 257.365775 
L 358.099626 257.307398 
L 361.206368 257.574799 
L 362.759739 257.829842 
L 365.866481 257.808916 
L 370.526594 257.933227 
L 373.633336 257.693247 
L 378.293449 257.821538 
L 381.400191 257.767758 
L 382.953562 257.874066 
L 384.506933 257.702853 
L 389.167047 257.909757 
L 392.273789 257.710877 
L 393.82716 257.882118 
L 396.933902 257.761062 
L 398.487273 257.53354 
L 398.487273 257.53354 
" clip-path="url(#p03eb475f51)" style="fill: none; stroke: #1f77b4; stroke-width: 1.5; stroke-linecap: square"/>
   </g>
   <g id="line2d_14">
    <path d="M 73.832727 219.912848 
L 75.386098 219.787414 
L 76.939469 219.912422 
L 78.49284 220.330156 
L 80.046211 220.529891 
L 81.599582 220.496493 
L 86.259696 221.062073 
L 87.813067 221.184371 
L 92.47318 221.01895 
L 95.579922 221.451133 
L 100.240035 221.669899 
L 104.900148 222.672753 
L 109.560261 223.231032 
L 111.113632 223.191796 
L 114.220374 223.743827 
L 115.773745 223.534536 
L 117.327116 223.630274 
L 118.880487 223.30428 
L 120.433858 223.382753 
L 121.987229 223.602759 
L 134.414197 224.072675 
L 135.967569 223.927026 
L 139.074311 224.202093 
L 140.627682 224.112451 
L 142.181053 224.205058 
L 143.734424 224.106018 
L 145.287795 224.220508 
L 146.841166 223.828822 
L 148.394537 224.111877 
L 151.501279 224.203345 
L 153.05465 224.117965 
L 154.608021 223.899493 
L 156.161392 224.270674 
L 157.714763 224.303125 
L 159.268134 224.028279 
L 163.928247 224.009596 
L 165.481618 224.072165 
L 167.034989 223.867493 
L 168.58836 223.960248 
L 170.141731 223.892151 
L 171.695102 223.610568 
L 174.801844 223.611593 
L 177.908586 223.816078 
L 179.461957 224.102352 
L 181.015328 224.009947 
L 185.675441 225.2179 
L 190.335555 226.170561 
L 193.442297 227.715094 
L 198.10241 229.820397 
L 199.655781 230.381756 
L 201.209152 231.180805 
L 204.315894 232.459919 
L 205.869265 233.510126 
L 207.422636 234.339885 
L 208.976007 234.990373 
L 212.082749 236.685116 
L 215.189491 238.343945 
L 216.742862 239.646121 
L 219.849604 241.879806 
L 221.402975 243.344305 
L 224.509717 245.637693 
L 226.063088 247.049 
L 227.616459 248.115662 
L 229.16983 248.965527 
L 230.723201 249.583031 
L 232.276572 250.379794 
L 235.383314 251.514918 
L 236.936686 252.115709 
L 238.490057 252.189581 
L 240.043428 252.615569 
L 241.596799 252.833223 
L 243.15017 253.266643 
L 244.703541 253.220819 
L 246.256912 253.550701 
L 247.810283 253.689729 
L 249.363654 253.983503 
L 250.917025 254.024011 
L 252.470396 253.923273 
L 255.577138 254.587253 
L 258.68388 254.75602 
L 260.237251 254.725079 
L 261.790622 254.507635 
L 263.343993 254.680431 
L 264.897364 254.631022 
L 269.557477 254.922803 
L 271.110848 255.084503 
L 274.21759 255.739939 
L 275.770961 255.725434 
L 277.324332 256.089864 
L 280.431074 255.778162 
L 281.984445 255.860413 
L 286.644559 256.492453 
L 288.19793 256.570837 
L 289.751301 256.800296 
L 292.858043 257.628267 
L 294.411414 257.615231 
L 297.518156 257.813771 
L 300.624898 257.666014 
L 302.178269 257.612497 
L 303.73164 257.871247 
L 305.285011 257.739171 
L 306.838382 257.734791 
L 308.391753 258.11438 
L 309.945124 258.020975 
L 314.605237 258.394946 
L 316.158608 258.341494 
L 319.26535 258.503041 
L 320.818721 258.939495 
L 323.925463 259.148428 
L 325.478834 259.17081 
L 327.032205 259.005213 
L 328.585576 258.723753 
L 333.245689 258.832853 
L 334.79906 258.779623 
L 337.905803 259.283388 
L 344.119287 259.428414 
L 348.7794 259.268348 
L 350.332771 259.43751 
L 351.886142 259.324315 
L 354.992884 259.700484 
L 358.099626 259.550323 
L 361.206368 259.705793 
L 362.759739 259.912056 
L 365.866481 259.833757 
L 370.526594 260.010876 
L 373.633336 259.894714 
L 378.293449 260.203747 
L 382.953562 260.188892 
L 384.506933 259.940628 
L 389.167047 259.923299 
L 392.273789 259.677279 
L 393.82716 259.866838 
L 396.933902 259.845865 
L 398.487273 259.678231 
L 398.487273 259.678231 
" clip-path="url(#p03eb475f51)" style="fill: none; stroke-dasharray: 5.55,2.4; stroke-dashoffset: 0; stroke: #ff7f0e; stroke-width: 1.5"/>
   </g>
   <g id="line2d_15">
    <path d="M 73.832727 219.358118 
L 75.386098 219.225851 
L 76.939469 219.34123 
L 78.49284 219.74699 
L 80.046211 219.933092 
L 81.599582 219.884962 
L 86.259696 220.401938 
L 87.813067 220.506659 
L 92.47318 220.283916 
L 95.579922 220.673599 
L 100.240035 220.821103 
L 103.346777 221.605248 
L 106.453519 221.897777 
L 108.00689 222.134774 
L 109.560261 222.205642 
L 111.113632 222.131508 
L 114.220374 222.608022 
L 115.773745 222.357832 
L 117.327116 222.410362 
L 118.880487 222.038678 
L 120.433858 222.068783 
L 121.987229 222.237528 
L 132.860826 222.261274 
L 134.414197 222.158854 
L 135.967569 221.921551 
L 139.074311 221.992041 
L 140.627682 221.787983 
L 142.181053 221.756924 
L 143.734424 221.523948 
L 145.287795 221.493063 
L 146.841166 220.943225 
L 148.394537 221.053815 
L 151.501279 220.750034 
L 153.05465 220.437423 
L 154.608021 219.968389 
L 156.161392 220.062393 
L 157.714763 219.787178 
L 159.268134 219.169578 
L 163.928247 217.85149 
L 165.481618 217.363698 
L 167.034989 216.532073 
L 168.58836 215.906712 
L 170.141731 215.011251 
L 174.801844 211.335741 
L 176.355215 209.836138 
L 177.908586 208.120706 
L 179.461957 206.168301 
L 182.568699 200.482858 
L 184.12207 196.862171 
L 185.675441 192.206358 
L 187.228813 186.416766 
L 188.782184 179.297167 
L 190.335555 171.06586 
L 193.442297 152.633551 
L 194.995668 143.557295 
L 196.549039 136.183861 
L 198.10241 131.874418 
L 199.655781 131.417697 
L 201.209152 135.381297 
L 202.762523 142.786693 
L 204.315894 152.530358 
L 207.422636 174.64456 
L 208.976007 184.489361 
L 210.529378 193.272423 
L 212.082749 200.824606 
L 213.63612 207.199141 
L 216.742862 217.379913 
L 218.296233 221.412952 
L 221.402975 228.503821 
L 224.509717 233.886557 
L 226.063088 236.489164 
L 227.616459 238.569281 
L 229.16983 240.286481 
L 232.276572 243.092033 
L 236.936686 246.299325 
L 238.490057 246.74371 
L 240.043428 247.492708 
L 241.596799 247.991172 
L 243.15017 248.667378 
L 244.703541 248.829504 
L 246.256912 249.334805 
L 247.810283 249.618181 
L 249.363654 250.025858 
L 250.917025 250.149569 
L 252.470396 250.100103 
L 255.577138 250.760065 
L 257.130509 250.814001 
L 258.68388 250.749795 
L 260.237251 250.544437 
L 261.790622 250.081899 
L 263.343993 249.927207 
L 271.110848 247.522866 
L 272.664219 247.270562 
L 274.21759 247.269453 
L 275.770961 247.114408 
L 277.324332 247.573121 
L 280.431074 247.940564 
L 283.537816 249.051949 
L 285.091187 249.578434 
L 286.644559 249.97646 
L 288.19793 250.258453 
L 289.751301 250.711754 
L 291.304672 251.381653 
L 292.858043 252.189174 
L 294.411414 252.611017 
L 297.518156 253.767154 
L 302.178269 254.784282 
L 303.73164 255.343673 
L 306.838382 255.670574 
L 308.391753 256.227297 
L 309.945124 256.283401 
L 313.051866 256.760977 
L 314.605237 256.987573 
L 316.158608 257.015999 
L 319.26535 257.312396 
L 320.818721 257.804724 
L 323.925463 258.107441 
L 325.478834 258.169174 
L 327.032205 258.038607 
L 328.585576 257.788229 
L 333.245689 257.969047 
L 334.79906 257.932756 
L 337.905803 258.45917 
L 344.119287 258.592039 
L 348.7794 258.35995 
L 350.332771 258.498448 
L 351.886142 258.357934 
L 354.992884 258.711112 
L 358.099626 258.599163 
L 361.206368 258.835435 
L 362.759739 259.084459 
L 365.866481 259.074733 
L 370.526594 259.288795 
L 373.633336 259.154485 
L 378.293449 259.414706 
L 381.400191 259.3521 
L 382.953562 259.423671 
L 384.506933 259.207708 
L 389.167047 259.314508 
L 392.273789 259.140271 
L 393.82716 259.358359 
L 396.933902 259.379674 
L 398.487273 259.225886 
L 398.487273 259.225886 
" clip-path="url(#p03eb475f51)" style="fill: none; stroke-dasharray: 5.55,2.4; stroke-dashoffset: 0; stroke: #2ca02c; stroke-width: 1.5"/>
   </g>
   <g id="line2d_16">
    <path d="M 73.832727 219.333461 
L 75.386098 219.202184 
L 76.939469 219.31898 
L 78.49284 219.726541 
L 80.046211 219.914748 
L 81.599582 219.868962 
L 86.259696 220.394216 
L 87.813067 220.502134 
L 92.47318 220.290529 
L 95.579922 220.68914 
L 100.240035 220.852811 
L 103.346777 221.649964 
L 106.453519 221.957654 
L 108.00689 222.203161 
L 109.560261 222.28323 
L 111.113632 222.219054 
L 114.220374 222.718034 
L 115.773745 222.480512 
L 117.327116 222.546793 
L 118.880487 222.190044 
L 120.433858 222.236386 
L 121.987229 222.4228 
L 132.860826 222.625091 
L 134.414197 222.558861 
L 135.967569 222.361384 
L 139.074311 222.524225 
L 140.627682 222.373759 
L 142.181053 222.402081 
L 143.734424 222.235027 
L 145.287795 222.277478 
L 146.841166 221.809403 
L 148.394537 222.01136 
L 151.501279 221.924881 
L 153.05465 221.741726 
L 154.608021 221.418907 
L 156.161392 221.678566 
L 157.714763 221.591646 
L 159.268134 221.188825 
L 165.481618 220.616111 
L 167.034989 220.225326 
L 168.58836 220.116299 
L 170.141731 219.828943 
L 171.695102 219.308553 
L 176.355215 218.509265 
L 179.461957 218.214847 
L 181.015328 217.700277 
L 184.12207 217.582179 
L 187.228813 216.974901 
L 190.335555 216.023333 
L 191.888926 215.854461 
L 193.442297 215.484308 
L 194.995668 214.922363 
L 196.549039 214.11171 
L 198.10241 213.051111 
L 201.209152 209.881726 
L 202.762523 207.599569 
L 204.315894 204.650972 
L 205.869265 201.36844 
L 207.422636 196.895605 
L 208.976007 191.035264 
L 210.529378 183.867918 
L 212.082749 175.039354 
L 213.63612 164.351834 
L 216.742862 138.495546 
L 218.296233 124.847898 
L 219.849604 112.855308 
L 221.402975 104.657672 
L 222.956346 101.297867 
L 224.509717 104.079866 
L 226.063088 112.825784 
L 227.616459 125.610406 
L 232.276572 170.894593 
L 233.829943 183.846372 
L 235.383314 195.049344 
L 236.936686 204.41402 
L 238.490057 211.652689 
L 240.043428 217.909525 
L 241.596799 222.87801 
L 243.15017 227.2002 
L 246.256912 233.346758 
L 249.363654 237.874552 
L 250.917025 239.502489 
L 252.470396 240.7563 
L 254.023767 242.266519 
L 255.577138 243.585131 
L 257.130509 244.571532 
L 258.68388 245.376499 
L 260.237251 246.002726 
L 261.790622 246.358484 
L 263.343993 247.031218 
L 266.450735 247.866924 
L 269.557477 248.687291 
L 272.664219 249.553658 
L 274.21759 250.062341 
L 275.770961 250.144337 
L 277.324332 250.557448 
L 278.877703 250.43919 
L 280.431074 250.180025 
L 285.091187 250.085089 
L 286.644559 249.83537 
L 292.858043 248.022297 
L 294.411414 247.065865 
L 297.518156 245.719377 
L 299.071527 245.231443 
L 300.624898 245.163345 
L 302.178269 245.396222 
L 303.73164 246.163704 
L 306.838382 247.21345 
L 308.391753 248.081713 
L 309.945124 248.368057 
L 316.158608 250.130351 
L 319.26535 251.545816 
L 320.818721 252.685335 
L 322.372092 253.524578 
L 325.478834 254.789271 
L 327.032205 255.099297 
L 328.585576 255.218431 
L 331.692318 255.958658 
L 334.79906 256.325563 
L 337.905803 257.145752 
L 342.565916 257.709727 
L 348.7794 257.749799 
L 350.332771 257.971128 
L 351.886142 257.903926 
L 354.992884 258.355146 
L 359.652997 258.302801 
L 362.759739 258.657439 
L 365.866481 258.567941 
L 370.526594 258.655309 
L 373.633336 258.433476 
L 378.293449 258.610579 
L 381.400191 258.553914 
L 382.953562 258.639287 
L 384.506933 258.435773 
L 389.167047 258.518548 
L 392.273789 258.247885 
L 393.82716 258.390596 
L 396.933902 258.227252 
L 398.487273 257.985885 
L 398.487273 257.985885 
" clip-path="url(#p03eb475f51)" style="fill: none; stroke-dasharray: 5.55,2.4; stroke-dashoffset: 0; stroke: #d62728; stroke-width: 1.5"/>
   </g>
   <g id="patch_3">
    <path d="M 57.6 307.584 
L 57.6 41.472 
" style="fill: none; stroke: #000000; stroke-width: 0.8; stroke-linejoin: miter; stroke-linecap: square"/>
   </g>
   <g id="patch_4">
    <path d="M 414.72 307.584 
L 414.72 41.472 
" style="fill: none; stroke: #000000; stroke-width: 0.8; stroke-linejoin: miter; stroke-linecap: square"/>
   </g>
   <g id="patch_5">
    <path d="M 57.6 307.584 
L 414.72 307.584 
" style="fill: none; stroke: #000000; stroke-width: 0.8; stroke-linejoin: miter; stroke-linecap: square"/>
   </g>
   <g id="patch_6">
    <path d="M 57.6 41.472 
L 414.72 41.472 
" style="fill: none; stroke: #000000; stroke-width: 0.8; stroke-linejoin: miter; stroke-linecap: square"/>
   </g>
   <g id="legend_1">
    <g id="patch_7">
     <path d="M 325.537188 123.418875 
L 407.72 123.418875 
Q 409.72 123.418875 409.72 121.418875 
L 409.72 48.472 
Q 409.72 46.472 407.72 46.472 
L 325.537188 46.472 
Q 323.537188 46.472 323.537188 48.472 
L 323.537188 121.418875 
Q 323.537188 123.418875 325.537188 123.418875 
z
" style="fill: #ffffff; opacity: 0.8; stroke: #cccccc; stroke-linejoin: miter"/>
    </g>
    <g id="line2d_17">
     <path d="M 327.537188 54.570438 
L 337.537188 54.570438 
L 347.537188 54.570438 
" style="fill: none; stroke: #000000; stroke-width: 1.5; stroke-linecap: square"/>
    </g>
    <g id="text_14">
     <!-- data -->
     <g transform="translate(355.537188 58.070438) scale(0.1 -0.1)">
      <defs>
       <path id="DejaVuSans-61" d="M 2194 1759 
Q 1497 1759 1228 1600 
Q 959 1441 959 1056 
Q 959 750 1161 570 
Q 1363 391 1709 391 
Q 2188 391 2477 730 
Q 2766 1069 2766 1631 
L 2766 1759 
L 2194 1759 
z
M 3341 1997 
L 3341 0 
L 2766 0 
L 2766 531 
Q 2569 213 2275 61 
Q 1981 -91 1556 -91 
Q 1019 -91 701 211 
Q 384 513 384 1019 
Q 384 1609 779 1909 
Q 1175 2209 1959 2209 
L 2766 2209 
L 2766 2266 
Q 2766 2663 2505 2880 
Q 2244 3097 1772 3097 
Q 1472 3097 1187 3025 
Q 903 2953 641 2809 
L 641 3341 
Q 956 3463 1253 3523 
Q 1550 3584 1831 3584 
Q 2591 3584 2966 3190 
Q 3341 2797 3341 1997 
z
" transform="scale(0.015625)"/>
      </defs>
      <use xlink:href="#DejaVuSans-64"/>
      <use xlink:href="#DejaVuSans-61" transform="translate(63.476562 0)"/>
      <use xlink:href="#DejaVuSans-74" transform="translate(124.755859 0)"/>
      <use xlink:href="#DejaVuSans-61" transform="translate(163.964844 0)"/>
     </g>
    </g>
    <g id="line2d_18">
     <path d="M 327.537188 69.248563 
L 337.537188 69.248563 
L 347.537188 69.248563 
" style="fill: none; stroke: #1f77b4; stroke-width: 1.5; stroke-linecap: square"/>
    </g>
    <g id="text_15">
     <!-- fit -->
     <g transform="translate(355.537188 72.748563) scale(0.1 -0.1)">
      <defs>
       <path id="DejaVuSans-66" d="M 2375 4863 
L 2375 4384 
L 1825 4384 
Q 1516 4384 1395 4259 
Q 1275 4134 1275 3809 
L 1275 3500 
L 2222 3500 
L 2222 3053 
L 1275 3053 
L 1275 0 
L 697 0 
L 697 3053 
L 147 3053 
L 147 3500 
L 697 3500 
L 697 3744 
Q 697 4328 969 4595 
Q 1241 4863 1831 4863 
L 2375 4863 
z
" transform="scale(0.015625)"/>
      </defs>
      <use xlink:href="#DejaVuSans-66"/>
      <use xlink:href="#DejaVuSans-69" transform="translate(35.205078 0)"/>
      <use xlink:href="#DejaVuSans-74" transform="translate(62.988281 0)"/>
     </g>
    </g>
    <g id="line2d_19">
     <path d="M 327.537188 83.926688 
L 337.537188 83.926688 
L 347.537188 83.926688 
" style="fill: none; stroke-dasharray: 5.55,2.4; stroke-dashoffset: 0; stroke: #ff7f0e; stroke-width: 1.5"/>
    </g>
    <g id="text_16">
     <!-- shirley -->
     <g transform="translate(355.537188 87.426688) scale(0.1 -0.1)">
      <defs>
       <path id="DejaVuSans-68" d="M 3513 2113 
L 3513 0 
L 2938 0 
L 2938 2094 
Q 2938 2591 2744 2837 
Q 2550 3084 2163 3084 
Q 1697 3084 1428 2787 
Q 1159 2491 1159 1978 
L 1159 0 
L 581 0 
L 581 4863 
L 1159 4863 
L 1159 2956 
Q 1366 3272 1645 3428 
Q 1925 3584 2291 3584 
Q 2894 3584 3203 3211 
Q 3513 2838 3513 2113 
z
" transform="scale(0.015625)"/>
       <path id="DejaVuSans-6c" d="M 603 4863 
L 1178 4863 
L 1178 0 
L 603 0 
L 603 4863 
z
" transform="scale(0.015625)"/>
      </defs>
      <use xlink:href="#DejaVuSans-73"/>
      <use xlink:href="#DejaVuSans-68" transform="translate(52.099609 0)"/>
      <use xlink:href="#DejaVuSans-69" transform="translate(115.478516 0)"/>
      <use xlink:href="#DejaVuSans-72" transform="translate(143.261719 0)"/>
      <use xlink:href="#DejaVuSans-6c" transform="translate(184.375 0)"/>
      <use xlink:href="#DejaVuSans-65" transform="translate(212.158203 0)"/>
      <use xlink:href="#DejaVuSans-79" transform="translate(273.681641 0)"/>
     </g>
    </g>
    <g id="line2d_20">
     <path d="M 327.537188 98.604813 
L 337.537188 98.604813 
L 347.537188 98.604813 
" style="fill: none; stroke-dasharray: 5.55,2.4; stroke-dashoffset: 0; stroke: #2ca02c; stroke-width: 1.5"/>
    </g>
    <g id="text_17">
     <!-- Mo_3d_32 -->
     <g transform="translate(355.537188 102.104813) scale(0.1 -0.1)">
      <defs>
       <path id="DejaVuSans-4d" d="M 628 4666 
L 1569 4666 
L 2759 1491 
L 3956 4666 
L 4897 4666 
L 4897 0 
L 4281 0 
L 4281 4097 
L 3078 897 
L 2444 897 
L 1241 4097 
L 1241 0 
L 628 0 
L 628 4666 
z
" transform="scale(0.015625)"/>
       <path id="DejaVuSans-5f" d="M 3263 -1063 
L 3263 -1509 
L -63 -1509 
L -63 -1063 
L 3263 -1063 
z
" transform="scale(0.015625)"/>
      </defs>
      <use xlink:href="#DejaVuSans-4d"/>
      <use xlink:href="#DejaVuSans-6f" transform="translate(86.279297 0)"/>
      <use xlink:href="#DejaVuSans-5f" transform="translate(147.460938 0)"/>
      <use xlink:href="#DejaVuSans-33" transform="translate(197.460938 0)"/>
      <use xlink:href="#DejaVuSans-64" transform="translate(261.083984 0)"/>
      <use xlink:href="#DejaVuSans-5f" transform="translate(324.560547 0)"/>
      <use xlink:href="#DejaVuSans-33" transform="translate(374.560547 0)"/>
      <use xlink:href="#DejaVuSans-32" transform="translate(438.183594 0)"/>
     </g>
    </g>
    <g id="line2d_21">
     <path d="M 327.537188 113.561063 
L 337.537188 113.561063 
L 347.537188 113.561063 
" style="fill: none; stroke-dasharray: 5.55,2.4; stroke-dashoffset: 0; stroke: #d62728; stroke-width: 1.5"/>
    </g>
    <g id="text_18">
     <!-- Mo_3d_52 -->
     <g transform="translate(355.537188 117.061063) scale(0.1 -0.1)">
      <use xlink:href="#DejaVuSans-4d"/>
      <use xlink:href="#DejaVuSans-6f" transform="translate(86.279297 0)"/>
      <use xlink:href="#DejaVuSans-5f" transform="translate(147.460938 0)"/>
      <use xlink:href="#DejaVuSans-33" transform="translate(197.460938 0)"/>
      <use xlink:href="#DejaVuSans-64" transform="translate(261.083984 0)"/>
      <use xlink:href="#DejaVuSans-5f" transform="translate(324.560547 0)"/>
      <use xlink:href="#DejaVuSans-35" transform="translate(374.560547 0)"/>
      <use xlink:href="#DejaVuSans-32" transform="translate(438.183594 0)"/>
     </g>
    </g>
   </g>
  </g>
 </g>
 <defs>
  <clipPath id="p03eb475f51">
   <rect x="57.6" y="41.472" width="357.12" height="266.112"/>
  </clipPath>
 </defs>
</svg>
